G04 Layer_Physical_Order=4*
G04 Layer_Color=16711680*
%FSLAX25Y25*%
%MOIN*%
G70*
G01*
G75*
%ADD13R,0.40000X0.20000*%
%ADD42C,0.01000*%
%ADD43C,0.02000*%
%ADD45C,0.05905*%
%ADD46R,0.05905X0.05905*%
%ADD47C,0.03543*%
%ADD48C,0.06000*%
%ADD49R,0.05905X0.05905*%
%ADD50C,0.03900*%
%ADD51C,0.09350*%
%ADD52C,0.02200*%
%ADD63R,0.02559X0.08268*%
%ADD64R,0.08268X0.02559*%
G36*
X230000Y66000D02*
X240000Y56000D01*
X270000Y56000D01*
Y15000D01*
X165000D01*
Y72000D01*
X230000D01*
Y66000D01*
D02*
G37*
G36*
X268000Y-56000D02*
X163000D01*
Y5000D01*
X193267D01*
X193399Y4337D01*
X193774Y3774D01*
X194337Y3399D01*
X195000Y3267D01*
X195663Y3399D01*
X196226Y3774D01*
X196601Y4337D01*
X196733Y5000D01*
X268000D01*
Y-56000D01*
D02*
G37*
%LPC*%
G36*
X194000Y69733D02*
X193337Y69601D01*
X192774Y69226D01*
X192399Y68663D01*
X192267Y68000D01*
X192399Y67337D01*
X192774Y66774D01*
X193337Y66399D01*
X194000Y66267D01*
X194663Y66399D01*
X195226Y66774D01*
X195601Y67337D01*
X195733Y68000D01*
X195601Y68663D01*
X195226Y69226D01*
X194663Y69601D01*
X194000Y69733D01*
D02*
G37*
G36*
X173000Y24733D02*
X172337Y24601D01*
X171774Y24226D01*
X171399Y23663D01*
X171267Y23000D01*
X171399Y22337D01*
X171774Y21774D01*
X172337Y21399D01*
X173000Y21267D01*
X173663Y21399D01*
X174226Y21774D01*
X174601Y22337D01*
X174733Y23000D01*
X174601Y23663D01*
X174226Y24226D01*
X173663Y24601D01*
X173000Y24733D01*
D02*
G37*
G36*
X206000Y49733D02*
X205337Y49601D01*
X204774Y49226D01*
X204399Y48663D01*
X204267Y48000D01*
X204399Y47337D01*
X204774Y46774D01*
X205337Y46399D01*
X206000Y46267D01*
X206663Y46399D01*
X207226Y46774D01*
X207601Y47337D01*
X207733Y48000D01*
X207601Y48663D01*
X207226Y49226D01*
X206663Y49601D01*
X206000Y49733D01*
D02*
G37*
G36*
Y-11267D02*
X205337Y-11399D01*
X204774Y-11774D01*
X204399Y-12337D01*
X204267Y-13000D01*
X204399Y-13663D01*
X204774Y-14226D01*
X205337Y-14601D01*
X206000Y-14733D01*
X206663Y-14601D01*
X207226Y-14226D01*
X207601Y-13663D01*
X207733Y-13000D01*
X207601Y-12337D01*
X207226Y-11774D01*
X206663Y-11399D01*
X206000Y-11267D01*
D02*
G37*
G36*
X171000Y-36267D02*
X170337Y-36399D01*
X169774Y-36774D01*
X169399Y-37337D01*
X169267Y-38000D01*
X169399Y-38663D01*
X169774Y-39226D01*
X170337Y-39601D01*
X171000Y-39733D01*
X171663Y-39601D01*
X172226Y-39226D01*
X172601Y-38663D01*
X172733Y-38000D01*
X172601Y-37337D01*
X172226Y-36774D01*
X171663Y-36399D01*
X171000Y-36267D01*
D02*
G37*
%LPD*%
D13*
X20000Y-51000D02*
D03*
D42*
X115400Y-39600D02*
X131400D01*
X95000Y-60000D02*
X115400Y-39600D01*
X85000Y-60000D02*
X95000D01*
X101000Y-24000D02*
X121000D01*
X55000Y-50000D02*
X75000D01*
X101000Y-24000D01*
X17500Y2500D02*
X28413D01*
X15000Y0D02*
X17500Y2500D01*
Y-2500D02*
X28413D01*
X15000Y-5000D02*
X17500Y-2500D01*
Y-7500D02*
X28413D01*
X15000Y-10000D02*
X17500Y-7500D01*
Y-12500D02*
X28413D01*
X15000Y-15000D02*
X17500Y-12500D01*
Y-17500D02*
X28413D01*
X15000Y-20000D02*
X17500Y-17500D01*
Y-22500D02*
X28413D01*
X15000Y-25000D02*
X17500Y-22500D01*
X123000Y-67000D02*
Y-46787D01*
Y-32613D02*
Y-26000D01*
X121000Y-24000D02*
X123000Y-26000D01*
X51000Y-60000D02*
Y-54000D01*
X55000Y-50000D01*
X51000Y-80000D02*
Y-79500D01*
X128000Y-37000D02*
Y-32613D01*
X133000Y-38000D02*
Y-32613D01*
X85000Y-55000D02*
X102000Y-38000D01*
X131400Y-39600D02*
X133000Y-38000D01*
X51000Y-80000D02*
X57000Y-86000D01*
X76000D01*
X80000Y-79000D02*
X86000Y-73000D01*
X117000D01*
X123000Y-67000D01*
X76000Y-86000D02*
X80000Y-82000D01*
Y-79000D01*
X85000Y-84000D02*
X114000D01*
X42587Y-22500D02*
X66389D01*
X68089Y-24200D01*
X90800D01*
X100000Y-15000D01*
X42587Y-17500D02*
X92500D01*
X100000Y-10000D01*
X42587Y-12500D02*
X92500D01*
X100000Y-5000D01*
X42587Y-7500D02*
X92500D01*
X100000Y0D01*
X42587Y-2500D02*
X43088Y-3001D01*
X91999D01*
X100000Y5000D01*
X42587Y2500D02*
X49500D01*
X53000Y-1000D01*
X65000D01*
X70000Y4000D01*
X94000D01*
X100000Y10000D01*
X42587Y7500D02*
X69500D01*
X74000Y12000D01*
X97000D01*
X100000Y15000D01*
X68100Y9100D02*
X76000Y17000D01*
X97000D01*
X100000Y20000D01*
X42587Y12500D02*
X50500D01*
X53900Y9100D01*
X68100D01*
X143000Y-37000D02*
Y-32613D01*
Y-37000D02*
X147000Y-41000D01*
Y-51000D02*
Y-41000D01*
X102000Y-38000D02*
X127000D01*
X128000Y-37000D01*
X114000Y-84000D02*
X147000Y-51000D01*
X120000Y61000D02*
X125000Y66000D01*
X120000Y80000D02*
X125000Y75000D01*
Y66000D02*
Y75000D01*
X128000Y-61000D02*
Y-46787D01*
X133000Y-56000D02*
Y-46787D01*
X128000Y-61000D02*
X133000Y-56000D01*
X143000Y-51000D02*
Y-46787D01*
X133000Y-61000D02*
X143000Y-51000D01*
X128000Y-61000D02*
X133000D01*
D43*
X64000Y66000D02*
Y70000D01*
X20500Y22500D02*
X64000Y66000D01*
X20500Y17500D02*
Y22500D01*
X28413D01*
X20500Y17500D02*
X28413D01*
X42587Y22500D02*
X50500D01*
X42587Y17500D02*
X50500D01*
X20500Y12500D02*
X28413D01*
X25500Y7500D02*
X28413D01*
X20500Y12500D02*
X25500Y7500D01*
X63000Y39000D02*
X67000Y43000D01*
X63000Y29000D02*
Y39000D01*
X121000Y43000D02*
X139000Y25000D01*
X99000Y43000D02*
X108000Y34000D01*
Y12000D02*
Y34000D01*
X156000Y-41000D02*
Y-36000D01*
X67000Y43000D02*
X99000D01*
X121000D01*
X114000Y-6000D02*
Y6000D01*
X90000Y-30000D02*
X114000Y-6000D01*
X82000Y-30000D02*
X90000D01*
X73000Y-39000D02*
X82000Y-30000D01*
X108000Y12000D02*
X114000Y6000D01*
X156000Y-36000D01*
X153000Y-44000D02*
X156000Y-41000D01*
X146000Y-56000D02*
X153000Y-49000D01*
Y-44000D01*
D45*
X8000Y-4000D02*
D03*
Y-14000D02*
D03*
Y-24000D02*
D03*
X110000Y70000D02*
D03*
X110000Y80000D02*
D03*
X120000Y70000D02*
D03*
X120000Y80000D02*
D03*
X130000Y70000D02*
D03*
Y80000D02*
D03*
X140000Y70000D02*
D03*
Y80000D02*
D03*
X150000Y70000D02*
D03*
X150000Y80000D02*
D03*
X160000Y70000D02*
D03*
D46*
X8000Y-34000D02*
D03*
D47*
X72905Y84000D02*
D03*
X61094D02*
D03*
D48*
X62000Y50000D02*
D03*
X20000Y-51000D02*
D03*
D49*
X160000Y80000D02*
D03*
D50*
X60000Y-69500D02*
D03*
X80000Y-65500D02*
D03*
X80000Y-73500D02*
D03*
D51*
X60000Y-59500D02*
D03*
X60000Y-79500D02*
D03*
X72500Y-59500D02*
D03*
X72500Y-79500D02*
D03*
D52*
X97000Y-78000D02*
D03*
X52000Y59000D02*
D03*
Y63000D02*
D03*
X76000Y70000D02*
D03*
X64000D02*
D03*
X88000Y-46000D02*
D03*
X191231Y38131D02*
D03*
Y33800D02*
D03*
Y29469D02*
D03*
X186900Y38131D02*
D03*
Y33800D02*
D03*
Y29469D02*
D03*
X182569Y38131D02*
D03*
Y33800D02*
D03*
Y29469D02*
D03*
X182685Y-31681D02*
D03*
Y-27350D02*
D03*
Y-23020D02*
D03*
X187016Y-31681D02*
D03*
Y-27350D02*
D03*
Y-23020D02*
D03*
X191347Y-31681D02*
D03*
Y-27350D02*
D03*
Y-23020D02*
D03*
X100000Y26000D02*
D03*
X75000Y35000D02*
D03*
X78000Y32000D02*
D03*
X66000D02*
D03*
X55000Y2000D02*
D03*
Y12784D02*
D03*
X72000Y-801D02*
D03*
X50500Y22500D02*
D03*
Y17500D02*
D03*
X11000Y32000D02*
D03*
X17000Y29000D02*
D03*
X25000Y39000D02*
D03*
X17000Y50000D02*
D03*
X152000Y-80000D02*
D03*
X168000D02*
D03*
X20500Y12500D02*
D03*
X15000Y0D02*
D03*
Y-5000D02*
D03*
Y-10000D02*
D03*
Y-15000D02*
D03*
Y-20000D02*
D03*
Y-25000D02*
D03*
X104000Y32000D02*
D03*
X138000Y0D02*
D03*
X120000Y-18000D02*
D03*
X102000Y-30000D02*
D03*
X107000Y-31801D02*
D03*
X116000Y-21000D02*
D03*
X51000Y-60000D02*
D03*
Y-79500D02*
D03*
X85000Y-60000D02*
D03*
Y-79000D02*
D03*
Y-55000D02*
D03*
Y-84000D02*
D03*
X81000Y-40000D02*
D03*
X84000Y-37000D02*
D03*
X91000Y-43000D02*
D03*
X96000Y-54000D02*
D03*
X69000Y-22000D02*
D03*
Y-35000D02*
D03*
X73000Y-39000D02*
D03*
X88000Y-15000D02*
D03*
X118000Y17000D02*
D03*
X111000Y25000D02*
D03*
X148000Y28000D02*
D03*
X151000Y37000D02*
D03*
X154000Y40000D02*
D03*
X145000Y25000D02*
D03*
X151000Y31000D02*
D03*
X146000Y48000D02*
D03*
X60000Y20000D02*
D03*
X63000Y17000D02*
D03*
X67000Y43000D02*
D03*
X100000Y20000D02*
D03*
Y15000D02*
D03*
Y10000D02*
D03*
X87000Y9000D02*
D03*
X100000Y5000D02*
D03*
Y0D02*
D03*
Y-5000D02*
D03*
Y-10000D02*
D03*
Y-15000D02*
D03*
X65000Y-26000D02*
D03*
X52000Y5000D02*
D03*
X160000Y26000D02*
D03*
X173000Y23000D02*
D03*
X171000Y-38000D02*
D03*
X160000Y-35000D02*
D03*
X158608Y-32392D02*
D03*
X155608Y-29392D02*
D03*
X152000Y-26000D02*
D03*
X149000Y-23000D02*
D03*
X146000Y-20000D02*
D03*
X156000Y-1000D02*
D03*
X148000Y-2000D02*
D03*
X150000Y-40000D02*
D03*
X156000Y-41000D02*
D03*
X146000Y-56000D02*
D03*
X158000Y-50000D02*
D03*
Y-55000D02*
D03*
X63000Y29000D02*
D03*
X139000Y25000D02*
D03*
X206000Y-13000D02*
D03*
X186000Y0D02*
D03*
X190000D02*
D03*
X200000D02*
D03*
X204000D02*
D03*
X208000D02*
D03*
X212000D02*
D03*
X195000Y5000D02*
D03*
X196000Y0D02*
D03*
X194000Y68000D02*
D03*
X186000Y61000D02*
D03*
X190000D02*
D03*
X196000D02*
D03*
X200000D02*
D03*
X204000D02*
D03*
X208000D02*
D03*
X212000D02*
D03*
X199000Y-13000D02*
D03*
Y48000D02*
D03*
X206000D02*
D03*
X217000Y-25000D02*
D03*
Y-13000D02*
D03*
X225000Y-37000D02*
D03*
X229000D02*
D03*
X208000Y-33000D02*
D03*
X202000Y-45000D02*
D03*
X166000Y-13000D02*
D03*
X171000Y2000D02*
D03*
X217000Y36000D02*
D03*
Y48000D02*
D03*
X225000Y24000D02*
D03*
X229000D02*
D03*
X208000Y28000D02*
D03*
X202000Y16000D02*
D03*
X170000Y52000D02*
D03*
X171000Y62000D02*
D03*
X181000Y49000D02*
D03*
Y-13000D02*
D03*
X96000Y51000D02*
D03*
X99000Y48000D02*
D03*
X108000Y50000D02*
D03*
X111000Y53000D02*
D03*
X119000Y50000D02*
D03*
X93000Y54000D02*
D03*
X85000Y51216D02*
D03*
X84000Y32000D02*
D03*
X120000Y61000D02*
D03*
X133000Y58000D02*
D03*
X159000Y-4000D02*
D03*
X128000Y-61000D02*
D03*
X247570Y37495D02*
D03*
X251554Y36162D02*
D03*
X255647Y37104D02*
D03*
X262193Y28992D02*
D03*
X255844Y24896D02*
D03*
X251723Y25708D02*
D03*
X247685Y24553D02*
D03*
X243489Y24366D02*
D03*
X239883Y26519D02*
D03*
X239365Y30687D02*
D03*
X239633Y34878D02*
D03*
X242872Y37553D02*
D03*
X237570Y48494D02*
D03*
X231893Y35728D02*
D03*
X220075Y37265D02*
D03*
X222260Y44789D02*
D03*
X226409Y45440D02*
D03*
X230288Y47049D02*
D03*
X236077Y24365D02*
D03*
X231893Y24728D02*
D03*
X219782Y26881D02*
D03*
X216173Y29028D02*
D03*
X247570Y-24005D02*
D03*
X251251Y-26029D02*
D03*
X255295Y-24896D02*
D03*
X262198Y-32652D02*
D03*
X252016Y-36518D02*
D03*
X247833Y-36886D02*
D03*
X243640Y-37135D02*
D03*
X239957Y-35117D02*
D03*
X239365Y-30959D02*
D03*
X239574Y-26764D02*
D03*
X242708Y-23969D02*
D03*
X237570Y-13005D02*
D03*
X231893Y-25772D02*
D03*
X222312Y-16189D02*
D03*
X226469Y-15595D02*
D03*
X230446Y-14245D02*
D03*
X234010Y-37135D02*
D03*
X221894Y-34120D02*
D03*
X217730Y-33570D02*
D03*
X220086Y-23880D02*
D03*
X167500Y-7500D02*
D03*
X170000Y-52500D02*
D03*
Y-42500D02*
D03*
Y67500D02*
D03*
X175000Y-42500D02*
D03*
X177500Y-37500D02*
D03*
X175000Y67500D02*
D03*
X180000D02*
D03*
X185000D02*
D03*
X190000Y-52500D02*
D03*
X195000D02*
D03*
X197500Y-47500D02*
D03*
Y22500D02*
D03*
X200000Y-52500D02*
D03*
Y67500D02*
D03*
X205000Y-52500D02*
D03*
X207500Y-47500D02*
D03*
Y-37500D02*
D03*
Y22500D02*
D03*
X205000Y67500D02*
D03*
X210000Y-52500D02*
D03*
X212500Y-47500D02*
D03*
X210000Y-42500D02*
D03*
X212500Y-37500D02*
D03*
X210000Y-12500D02*
D03*
Y17500D02*
D03*
X212500Y22500D02*
D03*
X210000Y47500D02*
D03*
Y67500D02*
D03*
X215000Y-52500D02*
D03*
X217500Y-47500D02*
D03*
X215000Y-42500D02*
D03*
X217500Y-7500D02*
D03*
Y2500D02*
D03*
X215000Y17500D02*
D03*
X217500Y22500D02*
D03*
Y52500D02*
D03*
Y62500D02*
D03*
X215000Y67500D02*
D03*
X220000Y-52500D02*
D03*
X222500Y-47500D02*
D03*
X220000Y-42500D02*
D03*
X222500Y-7500D02*
D03*
X220000Y-2500D02*
D03*
X222500Y2500D02*
D03*
X220000Y17500D02*
D03*
X222500Y52500D02*
D03*
X220000Y57500D02*
D03*
X222500Y62500D02*
D03*
X220000Y67500D02*
D03*
X225000Y-52500D02*
D03*
X227500Y-47500D02*
D03*
X225000Y-42500D02*
D03*
X227500Y-7500D02*
D03*
X225000Y-2500D02*
D03*
X227500Y2500D02*
D03*
X225000Y17500D02*
D03*
X227500Y52500D02*
D03*
X225000Y57500D02*
D03*
X227500Y62500D02*
D03*
X225000Y67500D02*
D03*
X230000Y-52500D02*
D03*
X232500Y-47500D02*
D03*
X230000Y-42500D02*
D03*
X232500Y-7500D02*
D03*
X230000Y-2500D02*
D03*
X232500Y2500D02*
D03*
X230000Y17500D02*
D03*
X232500Y52500D02*
D03*
X230000Y57500D02*
D03*
X235000Y-52500D02*
D03*
X237500Y-47500D02*
D03*
X235000Y-42500D02*
D03*
X237500Y-7500D02*
D03*
X235000Y-2500D02*
D03*
X237500Y2500D02*
D03*
X235000Y17500D02*
D03*
Y57500D02*
D03*
X240000Y-52500D02*
D03*
X242500Y-47500D02*
D03*
X240000Y-42500D02*
D03*
X242500Y-7500D02*
D03*
X240000Y-2500D02*
D03*
X242500Y2500D02*
D03*
X240000Y17500D02*
D03*
X242500Y52500D02*
D03*
X245000Y-52500D02*
D03*
X247500Y-47500D02*
D03*
X245000Y-42500D02*
D03*
Y-12500D02*
D03*
X247500Y-7500D02*
D03*
X245000Y-2500D02*
D03*
X247500Y2500D02*
D03*
X245000Y17500D02*
D03*
X247500Y52500D02*
D03*
X250000Y-52500D02*
D03*
X252500Y-47500D02*
D03*
X250000Y-42500D02*
D03*
X252500Y-17500D02*
D03*
X250000Y-12500D02*
D03*
X252500Y-7500D02*
D03*
X250000Y-2500D02*
D03*
X252500Y2500D02*
D03*
X250000Y17500D02*
D03*
X252500Y42500D02*
D03*
X250000Y47500D02*
D03*
X252500Y52500D02*
D03*
X255000Y-52500D02*
D03*
X257500Y-47500D02*
D03*
X255000Y-42500D02*
D03*
X257500Y-17500D02*
D03*
X255000Y-12500D02*
D03*
X257500Y-7500D02*
D03*
X255000Y-2500D02*
D03*
X257500Y2500D02*
D03*
X255000Y17500D02*
D03*
X257500Y42500D02*
D03*
X255000Y47500D02*
D03*
X257500Y52500D02*
D03*
X260000Y-52500D02*
D03*
X262500Y-47500D02*
D03*
X260000Y-42500D02*
D03*
X262500Y-17500D02*
D03*
X260000Y-12500D02*
D03*
X262500Y-7500D02*
D03*
X260000Y-2500D02*
D03*
X262500Y2500D02*
D03*
X260000Y17500D02*
D03*
X262500Y42500D02*
D03*
X260000Y47500D02*
D03*
X262500Y52500D02*
D03*
X265000Y-52500D02*
D03*
Y-42500D02*
D03*
Y-12500D02*
D03*
Y-2500D02*
D03*
Y17500D02*
D03*
X267500Y42500D02*
D03*
X265000Y47500D02*
D03*
X267500Y52500D02*
D03*
D63*
X143000Y-32613D02*
D03*
X138000D02*
D03*
X133000D02*
D03*
X128000D02*
D03*
X123000D02*
D03*
X143000Y-46787D02*
D03*
X138000D02*
D03*
X133000D02*
D03*
X128000D02*
D03*
X123000D02*
D03*
D64*
X42587Y-2500D02*
D03*
X28413D02*
D03*
X42587Y-22500D02*
D03*
Y-17500D02*
D03*
Y-12500D02*
D03*
Y-7500D02*
D03*
Y2500D02*
D03*
Y7500D02*
D03*
Y12500D02*
D03*
Y17500D02*
D03*
Y22500D02*
D03*
X28413Y-22500D02*
D03*
Y-17500D02*
D03*
Y-12500D02*
D03*
Y-7500D02*
D03*
Y2500D02*
D03*
Y7500D02*
D03*
Y12500D02*
D03*
Y17500D02*
D03*
Y22500D02*
D03*
M02*
