G04 Layer_Color=32896*
%FSLAX25Y25*%
%MOIN*%
G70*
G01*
G75*
%ADD71C,0.00100*%
G36*
X24739Y-30545D02*
X25394D01*
X25492Y-30549D01*
X25582Y-30553D01*
X25664Y-30565D01*
X25742Y-30580D01*
X25808Y-30596D01*
X25870Y-30615D01*
X25925Y-30635D01*
X25972Y-30658D01*
X26015Y-30678D01*
X26050Y-30697D01*
X26077Y-30717D01*
X26104Y-30732D01*
X26120Y-30748D01*
X26132Y-30760D01*
X26139Y-30764D01*
X26143Y-30768D01*
X26182Y-30810D01*
X26213Y-30857D01*
X26241Y-30904D01*
X26264Y-30951D01*
X26303Y-31040D01*
X26327Y-31130D01*
X26338Y-31169D01*
X26342Y-31204D01*
X26346Y-31239D01*
X26350Y-31267D01*
X26354Y-31290D01*
Y-31306D01*
Y-31317D01*
Y-31321D01*
X26350Y-31392D01*
X26342Y-31458D01*
X26331Y-31516D01*
X26315Y-31567D01*
X26299Y-31610D01*
X26288Y-31641D01*
X26280Y-31661D01*
X26276Y-31668D01*
X26245Y-31727D01*
X26210Y-31774D01*
X26175Y-31817D01*
X26143Y-31852D01*
X26116Y-31879D01*
X26093Y-31898D01*
X26073Y-31910D01*
X26069Y-31914D01*
X26019Y-31945D01*
X25964Y-31973D01*
X25913Y-31992D01*
X25863Y-32008D01*
X25820Y-32019D01*
X25785Y-32027D01*
X25761Y-32035D01*
X25753D01*
X25699Y-32043D01*
X25636Y-32051D01*
X25570Y-32054D01*
X25508Y-32058D01*
X25449Y-32062D01*
X24400D01*
Y-29500D01*
X24739D01*
Y-30545D01*
D02*
G37*
G36*
X146600Y-25700D02*
X146261D01*
Y-24655D01*
X145606D01*
X145508Y-24651D01*
X145418Y-24647D01*
X145336Y-24635D01*
X145258Y-24620D01*
X145192Y-24604D01*
X145130Y-24585D01*
X145075Y-24565D01*
X145028Y-24542D01*
X144985Y-24522D01*
X144950Y-24503D01*
X144923Y-24483D01*
X144896Y-24468D01*
X144880Y-24452D01*
X144868Y-24440D01*
X144861Y-24436D01*
X144857Y-24432D01*
X144818Y-24390D01*
X144787Y-24343D01*
X144759Y-24296D01*
X144736Y-24249D01*
X144697Y-24160D01*
X144673Y-24070D01*
X144662Y-24031D01*
X144658Y-23996D01*
X144654Y-23961D01*
X144650Y-23933D01*
X144646Y-23910D01*
Y-23894D01*
Y-23883D01*
Y-23879D01*
X144650Y-23809D01*
X144658Y-23742D01*
X144669Y-23684D01*
X144685Y-23633D01*
X144701Y-23590D01*
X144712Y-23559D01*
X144720Y-23539D01*
X144724Y-23532D01*
X144755Y-23473D01*
X144790Y-23426D01*
X144825Y-23383D01*
X144857Y-23348D01*
X144884Y-23321D01*
X144907Y-23302D01*
X144927Y-23290D01*
X144931Y-23286D01*
X144982Y-23255D01*
X145036Y-23227D01*
X145087Y-23208D01*
X145138Y-23192D01*
X145180Y-23181D01*
X145215Y-23173D01*
X145239Y-23165D01*
X145247D01*
X145301Y-23157D01*
X145364Y-23149D01*
X145430Y-23145D01*
X145492Y-23142D01*
X145551Y-23138D01*
X146600D01*
Y-25700D01*
D02*
G37*
G36*
X144447Y-24799D02*
Y-25088D01*
X143336D01*
Y-25700D01*
X143020D01*
Y-25088D01*
X142673D01*
Y-24799D01*
X143020D01*
Y-23142D01*
X143277D01*
X144447Y-24799D01*
D02*
G37*
G36*
X28312Y-29800D02*
X27052D01*
X27095Y-29863D01*
X27138Y-29913D01*
X27157Y-29937D01*
X27173Y-29952D01*
X27181Y-29964D01*
X27185Y-29968D01*
X27204Y-29987D01*
X27224Y-30007D01*
X27274Y-30054D01*
X27337Y-30108D01*
X27395Y-30163D01*
X27454Y-30214D01*
X27501Y-30253D01*
X27520Y-30268D01*
X27536Y-30280D01*
X27543Y-30288D01*
X27547Y-30292D01*
X27610Y-30346D01*
X27664Y-30393D01*
X27719Y-30440D01*
X27766Y-30483D01*
X27809Y-30526D01*
X27848Y-30561D01*
X27887Y-30596D01*
X27918Y-30627D01*
X27945Y-30654D01*
X27968Y-30678D01*
X28004Y-30713D01*
X28023Y-30736D01*
X28031Y-30744D01*
X28082Y-30806D01*
X28128Y-30861D01*
X28163Y-30916D01*
X28191Y-30962D01*
X28214Y-31001D01*
X28230Y-31029D01*
X28238Y-31048D01*
X28242Y-31056D01*
X28265Y-31111D01*
X28280Y-31165D01*
X28292Y-31216D01*
X28300Y-31263D01*
X28304Y-31302D01*
X28308Y-31333D01*
Y-31352D01*
Y-31360D01*
X28304Y-31415D01*
X28300Y-31470D01*
X28273Y-31567D01*
X28238Y-31653D01*
X28199Y-31727D01*
X28160Y-31785D01*
X28140Y-31809D01*
X28124Y-31832D01*
X28109Y-31848D01*
X28097Y-31859D01*
X28093Y-31863D01*
X28089Y-31867D01*
X28047Y-31902D01*
X28004Y-31938D01*
X27957Y-31965D01*
X27906Y-31988D01*
X27809Y-32023D01*
X27715Y-32047D01*
X27672Y-32058D01*
X27633Y-32062D01*
X27598Y-32066D01*
X27567Y-32070D01*
X27540Y-32074D01*
X27504D01*
X27438Y-32070D01*
X27376Y-32066D01*
X27259Y-32043D01*
X27208Y-32031D01*
X27157Y-32015D01*
X27114Y-31996D01*
X27075Y-31980D01*
X27040Y-31961D01*
X27009Y-31945D01*
X26982Y-31926D01*
X26958Y-31914D01*
X26943Y-31902D01*
X26931Y-31891D01*
X26923Y-31887D01*
X26919Y-31883D01*
X26880Y-31844D01*
X26849Y-31805D01*
X26791Y-31715D01*
X26748Y-31626D01*
X26717Y-31536D01*
X26693Y-31458D01*
X26689Y-31423D01*
X26682Y-31392D01*
X26678Y-31368D01*
X26674Y-31349D01*
Y-31337D01*
Y-31333D01*
X26997Y-31298D01*
X27005Y-31384D01*
X27021Y-31458D01*
X27040Y-31520D01*
X27068Y-31575D01*
X27091Y-31618D01*
X27114Y-31649D01*
X27130Y-31664D01*
X27134Y-31672D01*
X27189Y-31719D01*
X27247Y-31754D01*
X27309Y-31778D01*
X27368Y-31797D01*
X27419Y-31805D01*
X27458Y-31809D01*
X27473Y-31813D01*
X27497D01*
X27575Y-31809D01*
X27645Y-31793D01*
X27703Y-31774D01*
X27754Y-31750D01*
X27793Y-31723D01*
X27824Y-31703D01*
X27840Y-31688D01*
X27848Y-31684D01*
X27894Y-31633D01*
X27926Y-31579D01*
X27949Y-31528D01*
X27968Y-31477D01*
X27976Y-31434D01*
X27980Y-31399D01*
X27984Y-31376D01*
Y-31372D01*
Y-31368D01*
X27976Y-31302D01*
X27961Y-31232D01*
X27937Y-31169D01*
X27910Y-31111D01*
X27883Y-31060D01*
X27859Y-31021D01*
X27852Y-31005D01*
X27844Y-30994D01*
X27836Y-30990D01*
Y-30986D01*
X27805Y-30947D01*
X27770Y-30904D01*
X27731Y-30861D01*
X27684Y-30818D01*
X27590Y-30729D01*
X27497Y-30639D01*
X27411Y-30565D01*
X27372Y-30530D01*
X27337Y-30502D01*
X27309Y-30475D01*
X27290Y-30459D01*
X27274Y-30448D01*
X27270Y-30444D01*
X27177Y-30362D01*
X27091Y-30288D01*
X27021Y-30222D01*
X26962Y-30167D01*
X26915Y-30120D01*
X26884Y-30085D01*
X26865Y-30062D01*
X26857Y-30058D01*
Y-30054D01*
X26806Y-29991D01*
X26767Y-29933D01*
X26728Y-29874D01*
X26701Y-29824D01*
X26678Y-29777D01*
X26662Y-29746D01*
X26654Y-29722D01*
X26650Y-29718D01*
Y-29715D01*
X26639Y-29675D01*
X26627Y-29636D01*
X26623Y-29601D01*
X26619Y-29570D01*
X26615Y-29543D01*
Y-29520D01*
Y-29504D01*
Y-29500D01*
X28312D01*
Y-29800D01*
D02*
G37*
%LPC*%
G36*
X25430Y-30845D02*
X24739D01*
Y-31762D01*
X25469D01*
X25539Y-31758D01*
X25593Y-31754D01*
X25636Y-31750D01*
X25668Y-31746D01*
X25691Y-31743D01*
X25703Y-31739D01*
X25706D01*
X25753Y-31719D01*
X25796Y-31700D01*
X25831Y-31672D01*
X25863Y-31649D01*
X25890Y-31626D01*
X25905Y-31606D01*
X25917Y-31590D01*
X25921Y-31587D01*
X25948Y-31544D01*
X25968Y-31497D01*
X25983Y-31450D01*
X25991Y-31407D01*
X25999Y-31368D01*
X26003Y-31337D01*
Y-31317D01*
Y-31310D01*
X25995Y-31232D01*
X25980Y-31161D01*
X25960Y-31103D01*
X25933Y-31056D01*
X25905Y-31017D01*
X25886Y-30990D01*
X25870Y-30970D01*
X25863Y-30966D01*
X25835Y-30947D01*
X25804Y-30927D01*
X25734Y-30896D01*
X25656Y-30877D01*
X25578Y-30861D01*
X25508Y-30853D01*
X25480Y-30849D01*
X25453D01*
X25430Y-30845D01*
D02*
G37*
G36*
X146261Y-23438D02*
X145531D01*
X145461Y-23442D01*
X145407Y-23446D01*
X145364Y-23450D01*
X145333Y-23454D01*
X145309Y-23458D01*
X145297Y-23461D01*
X145293D01*
X145247Y-23481D01*
X145204Y-23500D01*
X145169Y-23528D01*
X145138Y-23551D01*
X145110Y-23574D01*
X145095Y-23594D01*
X145083Y-23610D01*
X145079Y-23614D01*
X145052Y-23656D01*
X145032Y-23703D01*
X145017Y-23750D01*
X145009Y-23793D01*
X145001Y-23832D01*
X144997Y-23863D01*
Y-23883D01*
Y-23890D01*
X145005Y-23968D01*
X145020Y-24039D01*
X145040Y-24097D01*
X145067Y-24144D01*
X145095Y-24183D01*
X145114Y-24210D01*
X145130Y-24230D01*
X145138Y-24234D01*
X145165Y-24253D01*
X145196Y-24273D01*
X145266Y-24304D01*
X145344Y-24323D01*
X145422Y-24339D01*
X145492Y-24347D01*
X145520Y-24351D01*
X145547D01*
X145570Y-24354D01*
X146261D01*
Y-23438D01*
D02*
G37*
G36*
X143336Y-23652D02*
Y-24799D01*
X144139D01*
X143336Y-23652D01*
D02*
G37*
%LPD*%
D71*
X119500Y-51700D02*
Y-27700D01*
X146600D01*
Y-51700D02*
Y-27700D01*
X119500Y-51700D02*
X146600D01*
X23500Y-26500D02*
Y26500D01*
Y-26500D02*
X47500D01*
Y26500D01*
X23500D02*
X47500D01*
M02*
