G04 Layer_Color=16711935*
%FSLAX25Y25*%
%MOIN*%
G70*
G01*
G75*
%ADD75R,0.40600X0.20600*%
%ADD104C,0.06506*%
%ADD105R,0.06506X0.06506*%
%ADD106C,0.04143*%
%ADD107C,0.06600*%
%ADD108R,0.06506X0.06506*%
%ADD109C,0.04500*%
%ADD110C,0.09950*%
%ADD111R,0.03159X0.08868*%
%ADD112R,0.08868X0.03159*%
D75*
X20000Y-51000D02*
D03*
D104*
X8000Y-4000D02*
D03*
Y-14000D02*
D03*
Y-24000D02*
D03*
X110000Y70000D02*
D03*
X110000Y80000D02*
D03*
X120000Y70000D02*
D03*
X120000Y80000D02*
D03*
X130000Y70000D02*
D03*
Y80000D02*
D03*
X140000Y70000D02*
D03*
Y80000D02*
D03*
X150000Y70000D02*
D03*
X150000Y80000D02*
D03*
X160000Y70000D02*
D03*
D105*
X8000Y-34000D02*
D03*
D106*
X72905Y84000D02*
D03*
X61094D02*
D03*
D107*
X62000Y50000D02*
D03*
D108*
X160000Y80000D02*
D03*
D109*
X60000Y-69500D02*
D03*
X80000Y-65500D02*
D03*
X80000Y-73500D02*
D03*
D110*
X60000Y-59500D02*
D03*
X60000Y-79500D02*
D03*
X72500Y-59500D02*
D03*
X72500Y-79500D02*
D03*
D111*
X143000Y-32613D02*
D03*
X138000D02*
D03*
X133000D02*
D03*
X128000D02*
D03*
X123000D02*
D03*
X143000Y-46787D02*
D03*
X138000D02*
D03*
X133000D02*
D03*
X128000D02*
D03*
X123000D02*
D03*
D112*
X42587Y-2500D02*
D03*
X28413D02*
D03*
X42587Y-22500D02*
D03*
Y-17500D02*
D03*
Y-12500D02*
D03*
Y-7500D02*
D03*
Y2500D02*
D03*
Y7500D02*
D03*
Y12500D02*
D03*
Y17500D02*
D03*
Y22500D02*
D03*
X28413Y-22500D02*
D03*
Y-17500D02*
D03*
Y-12500D02*
D03*
Y-7500D02*
D03*
Y2500D02*
D03*
Y7500D02*
D03*
Y12500D02*
D03*
Y17500D02*
D03*
Y22500D02*
D03*
M02*
