G04 Layer_Physical_Order=1*
G04 Layer_Color=255*
%FSLAX25Y25*%
%MOIN*%
G70*
G01*
G75*
%ADD10R,0.02165X0.02165*%
%ADD11R,0.02165X0.02165*%
%ADD12R,0.05905X0.04331*%
%ADD13R,0.40000X0.20000*%
%ADD14R,0.01968X0.02559*%
%ADD15R,0.02756X0.05905*%
%ADD16R,0.03937X0.03150*%
%ADD17R,0.05118X0.04331*%
%ADD18O,0.00984X0.03740*%
%ADD19O,0.03740X0.00984*%
%ADD20R,0.12205X0.12205*%
%ADD21R,0.03937X0.03740*%
%ADD22R,0.03583X0.03780*%
G04:AMPARAMS|DCode=23|XSize=11.81mil|YSize=55.12mil|CornerRadius=0mil|HoleSize=0mil|Usage=FLASHONLY|Rotation=225.000|XOffset=0mil|YOffset=0mil|HoleType=Round|Shape=Round|*
%AMOVALD23*
21,1,0.04331,0.01181,0.00000,0.00000,315.0*
1,1,0.01181,-0.01531,0.01531*
1,1,0.01181,0.01531,-0.01531*
%
%ADD23OVALD23*%

G04:AMPARAMS|DCode=24|XSize=11.81mil|YSize=55.12mil|CornerRadius=0mil|HoleSize=0mil|Usage=FLASHONLY|Rotation=135.000|XOffset=0mil|YOffset=0mil|HoleType=Round|Shape=Round|*
%AMOVALD24*
21,1,0.04331,0.01181,0.00000,0.00000,225.0*
1,1,0.01181,0.01531,0.01531*
1,1,0.01181,-0.01531,-0.01531*
%
%ADD24OVALD24*%

%ADD25R,0.06575X0.10709*%
%ADD26R,0.04331X0.02362*%
%ADD27R,0.03740X0.03543*%
%ADD28R,0.03543X0.03740*%
%ADD29R,0.02559X0.01968*%
%ADD30R,0.01968X0.02362*%
%ADD31R,0.02362X0.01968*%
%ADD32R,0.03543X0.03150*%
%ADD33R,0.03937X0.03937*%
%ADD34R,0.08661X0.04134*%
G04:AMPARAMS|DCode=35|XSize=31mil|YSize=31mil|CornerRadius=15.5mil|HoleSize=0mil|Usage=FLASHONLY|Rotation=0.000|XOffset=0mil|YOffset=0mil|HoleType=Round|Shape=RoundedRectangle|*
%AMROUNDEDRECTD35*
21,1,0.03100,0.00000,0,0,0.0*
21,1,0.00000,0.03100,0,0,0.0*
1,1,0.03100,0.00000,0.00000*
1,1,0.03100,0.00000,0.00000*
1,1,0.03100,0.00000,0.00000*
1,1,0.03100,0.00000,0.00000*
%
%ADD35ROUNDEDRECTD35*%
%ADD36R,0.03000X0.05000*%
G04:AMPARAMS|DCode=37|XSize=19.68mil|YSize=23.62mil|CornerRadius=0mil|HoleSize=0mil|Usage=FLASHONLY|Rotation=135.000|XOffset=0mil|YOffset=0mil|HoleType=Round|Shape=Rectangle|*
%AMROTATEDRECTD37*
4,1,4,0.01531,0.00139,-0.00139,-0.01531,-0.01531,-0.00139,0.00139,0.01531,0.01531,0.00139,0.0*
%
%ADD37ROTATEDRECTD37*%

%ADD38P,0.03062X4X180.0*%
G04:AMPARAMS|DCode=39|XSize=19.68mil|YSize=23.62mil|CornerRadius=0mil|HoleSize=0mil|Usage=FLASHONLY|Rotation=45.000|XOffset=0mil|YOffset=0mil|HoleType=Round|Shape=Rectangle|*
%AMROTATEDRECTD39*
4,1,4,0.00139,-0.01531,-0.01531,0.00139,-0.00139,0.01531,0.01531,-0.00139,0.00139,-0.01531,0.0*
%
%ADD39ROTATEDRECTD39*%

G04:AMPARAMS|DCode=40|XSize=19.68mil|YSize=25.59mil|CornerRadius=0mil|HoleSize=0mil|Usage=FLASHONLY|Rotation=225.000|XOffset=0mil|YOffset=0mil|HoleType=Round|Shape=Rectangle|*
%AMROTATEDRECTD40*
4,1,4,-0.00209,0.01601,0.01601,-0.00209,0.00209,-0.01601,-0.01601,0.00209,-0.00209,0.01601,0.0*
%
%ADD40ROTATEDRECTD40*%

G04:AMPARAMS|DCode=41|XSize=19.68mil|YSize=25.59mil|CornerRadius=0mil|HoleSize=0mil|Usage=FLASHONLY|Rotation=315.000|XOffset=0mil|YOffset=0mil|HoleType=Round|Shape=Rectangle|*
%AMROTATEDRECTD41*
4,1,4,-0.01601,-0.00209,0.00209,0.01601,0.01601,0.00209,-0.00209,-0.01601,-0.01601,-0.00209,0.0*
%
%ADD41ROTATEDRECTD41*%

%ADD42C,0.01000*%
%ADD43C,0.02000*%
%ADD44C,0.01640*%
%ADD45C,0.05905*%
%ADD46R,0.05905X0.05905*%
%ADD47C,0.03543*%
%ADD48C,0.06000*%
%ADD49R,0.05905X0.05905*%
%ADD50C,0.03900*%
%ADD51C,0.09350*%
%ADD52C,0.02200*%
G36*
X203705Y51150D02*
X203039Y50150D01*
X202400D01*
Y47969D01*
X202000D01*
Y47569D01*
X200016D01*
Y45787D01*
X200416D01*
Y44033D01*
X198194Y41811D01*
X196250D01*
X196210Y41803D01*
X194903D01*
Y43110D01*
X194911Y43150D01*
Y45325D01*
X196793Y47207D01*
X197036Y47571D01*
X197122Y48000D01*
X197122Y48000D01*
Y50442D01*
X197584Y51250D01*
X198416D01*
Y51250D01*
X201584D01*
Y51250D01*
X202416D01*
Y51250D01*
X203663D01*
X203705Y51150D01*
D02*
G37*
G36*
X270000Y-56000D02*
X184469D01*
X184086Y-55076D01*
X194699Y-44464D01*
X194699Y-44464D01*
X194942Y-44100D01*
X195027Y-43671D01*
Y-36701D01*
X195019Y-36660D01*
Y-35354D01*
X196326D01*
X196366Y-35362D01*
X198744D01*
X200416Y-37033D01*
Y-38787D01*
X200016D01*
Y-40569D01*
X202000D01*
Y-40968D01*
D01*
Y-40569D01*
X203984D01*
Y-38787D01*
X203584D01*
Y-35914D01*
X203584Y-35250D01*
X204542Y-35150D01*
X204600D01*
Y-32969D01*
X205000D01*
Y-32568D01*
X206984D01*
Y-31474D01*
X207204Y-30739D01*
X207900Y-30584D01*
X214750D01*
Y-30584D01*
X215250D01*
Y-30584D01*
X217787D01*
Y-31984D01*
X222016D01*
Y-32409D01*
X223016D01*
Y-32470D01*
X225000D01*
Y-32870D01*
X225400D01*
Y-35150D01*
X226984D01*
Y-35150D01*
X227016Y-35150D01*
Y-35150D01*
X228600D01*
Y-32969D01*
X229400D01*
Y-35150D01*
X230984D01*
Y-35150D01*
X230984Y-35150D01*
X231922Y-35000D01*
X238500D01*
Y-26000D01*
X231984D01*
Y-25850D01*
X227984D01*
Y-25850D01*
X222016D01*
Y-26016D01*
X217787D01*
Y-27416D01*
X215971D01*
X215208Y-27015D01*
X215150Y-26458D01*
Y-25400D01*
X212968D01*
Y-24600D01*
X215150D01*
Y-23639D01*
X215354Y-22954D01*
X216039Y-22750D01*
X218319D01*
X218584Y-22750D01*
X218584Y-22750D01*
X219250Y-22584D01*
X219250Y-22584D01*
X221787D01*
Y-23984D01*
X228150D01*
Y-23825D01*
X228736Y-23747D01*
X229422Y-23463D01*
X230011Y-23011D01*
X230500Y-22523D01*
X231500Y-22774D01*
Y-24000D01*
X238500D01*
Y-23000D01*
X239600D01*
Y-19500D01*
Y-16000D01*
X238500D01*
Y-15000D01*
X231500D01*
Y-16656D01*
X229500D01*
X229500Y-16656D01*
X228764Y-16753D01*
X228078Y-17037D01*
X227489Y-17489D01*
X227489Y-17489D01*
X226962Y-18016D01*
X221787D01*
Y-19416D01*
X219900D01*
X219204Y-19261D01*
X218984Y-18526D01*
Y-17432D01*
X215016D01*
Y-18526D01*
X214796Y-19261D01*
X214100Y-19416D01*
X207250D01*
Y-19416D01*
X206584Y-19250D01*
X206584Y-19250D01*
X206319Y-19250D01*
X204377D01*
X203584Y-18750D01*
X203584Y-18320D01*
Y-17002D01*
X205877Y-14709D01*
X206000Y-14733D01*
X206663Y-14601D01*
X207226Y-14226D01*
X207601Y-13663D01*
X207733Y-13000D01*
X207601Y-12337D01*
X207226Y-11774D01*
X207121Y-11705D01*
Y-10642D01*
X207990Y-9750D01*
X209429D01*
X209584Y-9750D01*
Y-9750D01*
X210416Y-9718D01*
Y-9718D01*
X213584D01*
Y-6181D01*
X213984D01*
Y-4400D01*
X212000D01*
Y-4000D01*
X211600D01*
Y-1819D01*
X210016D01*
Y-1819D01*
X209984Y-1850D01*
X208400D01*
Y-4031D01*
X207600D01*
Y-1850D01*
X206984D01*
X206013Y-1850D01*
X205984Y-1850D01*
Y-1850D01*
X204400D01*
Y-4130D01*
X203600D01*
Y-1850D01*
X202016D01*
Y-1850D01*
X201987Y-1850D01*
X201016Y-1850D01*
X200400D01*
Y-4031D01*
X199600D01*
Y-1850D01*
X198016D01*
Y-1850D01*
X197984D01*
Y-1850D01*
X196400D01*
Y-4031D01*
X195600D01*
Y-1850D01*
X194122D01*
Y2535D01*
X194877Y3291D01*
X195000Y3267D01*
X195663Y3399D01*
X196226Y3774D01*
X196601Y4337D01*
X196733Y5000D01*
X270000D01*
Y-56000D01*
D02*
G37*
G36*
X179013Y-36660D02*
X179004Y-36701D01*
Y-41147D01*
X176273Y-43878D01*
X165000D01*
Y-36984D01*
X166213D01*
Y-36584D01*
X167967D01*
X169286Y-37903D01*
X169267Y-38000D01*
X169399Y-38663D01*
X169774Y-39226D01*
X170337Y-39601D01*
X171000Y-39733D01*
X171663Y-39601D01*
X172226Y-39226D01*
X172601Y-38663D01*
X172733Y-38000D01*
X172601Y-37337D01*
X172415Y-37058D01*
X172419Y-36765D01*
X172570Y-36083D01*
X172675Y-35872D01*
X172793Y-35793D01*
X173224Y-35362D01*
X177665D01*
X177706Y-35354D01*
X179013D01*
Y-36660D01*
D02*
G37*
G36*
X230000Y66000D02*
X240000Y56000D01*
X270000Y56000D01*
Y15000D01*
X191368D01*
X190986Y15924D01*
X194583Y19521D01*
X194583Y19521D01*
X194826Y19885D01*
X194911Y20314D01*
Y24450D01*
X194903Y24490D01*
Y25797D01*
X196210D01*
X196250Y25789D01*
X198594D01*
X200416Y23967D01*
Y22213D01*
X200016D01*
Y20432D01*
X202000D01*
X203984D01*
Y22213D01*
X203584D01*
Y25086D01*
X203584Y25750D01*
X204542Y25850D01*
X204600D01*
Y28130D01*
X205000D01*
Y28530D01*
X206984D01*
Y29526D01*
X207249Y30411D01*
X207982Y30416D01*
X214750D01*
Y30416D01*
X215250D01*
Y30416D01*
X217787D01*
Y29016D01*
X222016D01*
Y28787D01*
X223016D01*
Y28431D01*
X225000D01*
Y28032D01*
X225400D01*
Y25850D01*
X226984D01*
Y25850D01*
X227016Y25882D01*
X228600D01*
Y28063D01*
X229400D01*
Y25882D01*
X230984D01*
Y25882D01*
X231500Y26500D01*
X238500D01*
Y35500D01*
X231500D01*
Y35181D01*
X226016D01*
Y35150D01*
X222016D01*
Y34984D01*
X217787D01*
Y33584D01*
X215971D01*
X215208Y33985D01*
X215150Y34543D01*
Y35600D01*
X212968D01*
Y36400D01*
X215150D01*
Y37361D01*
X215354Y38045D01*
X216039Y38250D01*
X218319D01*
X218584Y38250D01*
X218584Y38250D01*
X219250Y38416D01*
X219250Y38416D01*
X221787D01*
Y37016D01*
X228150D01*
Y37175D01*
X228736Y37253D01*
X229422Y37537D01*
X230011Y37989D01*
X230500Y38478D01*
X231500Y38063D01*
Y37500D01*
X238500D01*
Y38500D01*
X239600D01*
Y42000D01*
Y45500D01*
X238500D01*
Y46500D01*
X231500D01*
Y44844D01*
X230000D01*
X230000Y44844D01*
X229264Y44747D01*
X228578Y44463D01*
X227989Y44011D01*
X227989Y44011D01*
X226962Y42984D01*
X221787D01*
Y41584D01*
X219900D01*
X219204Y41739D01*
X218984Y42474D01*
Y43569D01*
X215016D01*
Y42474D01*
X214796Y41739D01*
X214100Y41584D01*
X207250D01*
Y41584D01*
X206584Y41750D01*
X206584Y41750D01*
X206319Y41750D01*
X204377D01*
X203584Y42250D01*
X203584Y42680D01*
Y43998D01*
X205877Y46291D01*
X206000Y46267D01*
X206663Y46399D01*
X207226Y46774D01*
X207601Y47337D01*
X207733Y48000D01*
X207601Y48663D01*
X207226Y49226D01*
X207121Y49295D01*
Y51130D01*
X207122Y51130D01*
X207220Y51250D01*
X209584D01*
Y51250D01*
X210416D01*
Y51250D01*
X213584D01*
Y52067D01*
X213793Y52207D01*
X214036Y52571D01*
X214122Y53000D01*
X214036Y53429D01*
X213793Y53793D01*
X213797Y53865D01*
X213984Y54787D01*
X213984D01*
Y56568D01*
X212000D01*
Y56968D01*
X211600D01*
Y59150D01*
X210016D01*
Y59150D01*
X209984D01*
Y59150D01*
X208400D01*
Y56968D01*
X207600D01*
Y59150D01*
X206984D01*
X206013Y59150D01*
X205984Y59150D01*
Y59150D01*
X204400D01*
Y56870D01*
X203600D01*
Y59150D01*
X202016D01*
Y59150D01*
X201987Y59150D01*
X201016Y59150D01*
X200400D01*
Y56968D01*
X199600D01*
Y59150D01*
X198016D01*
Y59150D01*
X197984D01*
Y59150D01*
X196400D01*
Y56968D01*
X195600D01*
Y59150D01*
X194122D01*
Y66291D01*
X194663Y66399D01*
X195226Y66774D01*
X195601Y67337D01*
X195733Y68000D01*
X195601Y68663D01*
X195226Y69226D01*
X194663Y69601D01*
X194000Y69733D01*
X193337Y69601D01*
X192774Y69226D01*
X192399Y68663D01*
X192267Y68000D01*
X192291Y67877D01*
X192207Y67793D01*
X191964Y67429D01*
X191878Y67000D01*
X191878Y67000D01*
Y59150D01*
X190400D01*
Y56968D01*
X189600D01*
Y59150D01*
X188016D01*
Y59150D01*
X187984D01*
Y59150D01*
X186400D01*
Y56968D01*
X186000D01*
Y56568D01*
X184016D01*
Y56300D01*
X183016Y55886D01*
X181687Y57215D01*
Y59505D01*
X180998D01*
X180781Y60416D01*
X180781D01*
Y63584D01*
X177244D01*
Y63984D01*
X175463D01*
Y62000D01*
X175063D01*
Y61600D01*
X172882D01*
Y60016D01*
X171928Y59905D01*
X171228D01*
Y57731D01*
X174000D01*
Y56931D01*
X171228D01*
Y54756D01*
X171628D01*
Y50825D01*
X171244Y49984D01*
X170431D01*
Y48000D01*
X169632D01*
Y49984D01*
X167850D01*
Y49042D01*
X166927Y48660D01*
X165000Y50586D01*
Y72000D01*
X230000D01*
Y66000D01*
D02*
G37*
G36*
X192414Y4000D02*
X192207Y3793D01*
X191964Y3429D01*
X191878Y3000D01*
X191878Y3000D01*
Y-1850D01*
X190400D01*
Y-4031D01*
X189600D01*
Y-1850D01*
X188016D01*
Y-1850D01*
X187984D01*
Y-1850D01*
X186400D01*
Y-4031D01*
X185600D01*
Y-1850D01*
X184016D01*
Y-4015D01*
X183016Y-4430D01*
X181793Y-3207D01*
X181687Y-3136D01*
Y-1825D01*
X180090D01*
Y416D01*
X180750D01*
Y3584D01*
X177213D01*
Y3984D01*
X175432D01*
Y2000D01*
Y16D01*
X177213D01*
X177593Y-426D01*
X177338Y-1500D01*
X176847Y-1601D01*
X176772Y-1425D01*
X174400D01*
Y-4000D01*
X174000D01*
Y-4400D01*
X171228D01*
Y-6575D01*
X171628D01*
Y-10258D01*
X171628Y-10505D01*
X170840Y-11016D01*
X170431D01*
Y-13000D01*
Y-14984D01*
X172213D01*
Y-14584D01*
X175750D01*
Y-13754D01*
X176673Y-13371D01*
X179004Y-15702D01*
Y-18000D01*
X179013Y-18040D01*
Y-19347D01*
X177706D01*
X177665Y-19339D01*
X170451D01*
X165000Y-13888D01*
Y5000D01*
X192000D01*
X192414Y4000D01*
D02*
G37*
G36*
X176031Y-48645D02*
X168677Y-56000D01*
X165000D01*
Y-47722D01*
X175648D01*
X176031Y-48645D01*
D02*
G37*
G36*
X201584Y-9750D02*
X202416D01*
X203352Y-9878D01*
X202770Y-10850D01*
X202400D01*
Y-13032D01*
X202000D01*
Y-13431D01*
X200016D01*
Y-15213D01*
X200416D01*
Y-16967D01*
X198043Y-19339D01*
X196366D01*
X196326Y-19347D01*
X195019D01*
Y-18040D01*
X195027Y-18000D01*
Y-14559D01*
X196793Y-12793D01*
X196793Y-12793D01*
X197036Y-12429D01*
X197122Y-12000D01*
X197122Y-12000D01*
Y-10558D01*
X197584Y-9750D01*
X198416D01*
Y-9750D01*
X201584D01*
Y-9750D01*
D02*
G37*
%LPC*%
G36*
X201600Y50150D02*
X200016D01*
Y48368D01*
X201600D01*
Y50150D01*
D02*
G37*
G36*
X247500Y-16000D02*
X245400D01*
Y-19100D01*
X247500D01*
Y-16000D01*
D02*
G37*
G36*
X216600Y-14850D02*
X215016D01*
Y-16632D01*
X216600D01*
Y-14850D01*
D02*
G37*
G36*
X244600Y-16000D02*
X240400D01*
Y-19500D01*
Y-23000D01*
X244600D01*
Y-19500D01*
Y-16000D01*
D02*
G37*
G36*
X247500Y-19900D02*
X245400D01*
Y-23000D01*
X247500D01*
Y-19900D01*
D02*
G37*
G36*
X218984Y-14850D02*
X217400D01*
Y-16632D01*
X218984D01*
Y-14850D01*
D02*
G37*
G36*
X267331Y-37207D02*
X262400D01*
Y-39874D01*
X267331D01*
Y-37207D01*
D02*
G37*
G36*
Y-33740D02*
X262400D01*
Y-36407D01*
X267331D01*
Y-33740D01*
D02*
G37*
G36*
X261600Y-37207D02*
X256669D01*
Y-39874D01*
X261600D01*
Y-37207D01*
D02*
G37*
G36*
X201600Y-41368D02*
X200016D01*
Y-43150D01*
X201600D01*
Y-41368D01*
D02*
G37*
G36*
X203984D02*
X202400D01*
Y-43150D01*
X203984D01*
Y-41368D01*
D02*
G37*
G36*
X224600Y-33270D02*
X223016D01*
Y-35150D01*
X224600D01*
Y-33270D01*
D02*
G37*
G36*
X261600Y-22126D02*
X256669D01*
Y-24793D01*
X261600D01*
Y-22126D01*
D02*
G37*
G36*
X267331D02*
X262400D01*
Y-24793D01*
X267331D01*
Y-22126D01*
D02*
G37*
G36*
X261600Y-25593D02*
X256669D01*
Y-27031D01*
X252126D01*
Y-28156D01*
X248500D01*
Y-26000D01*
X241500D01*
Y-35000D01*
X248500D01*
Y-33844D01*
X252126D01*
Y-34969D01*
X256669D01*
Y-36407D01*
X261600D01*
Y-33740D01*
X260063D01*
Y-28260D01*
X261600D01*
Y-25593D01*
D02*
G37*
G36*
X206984Y-33369D02*
X205400D01*
Y-35150D01*
X206984D01*
Y-33369D01*
D02*
G37*
G36*
X267331Y-25593D02*
X262400D01*
Y-28260D01*
X267331D01*
Y-25593D01*
D02*
G37*
G36*
X213984Y-1819D02*
X212400D01*
Y-3600D01*
X213984D01*
Y-1819D01*
D02*
G37*
G36*
X247500Y41600D02*
X245400D01*
Y38500D01*
X247500D01*
Y41600D01*
D02*
G37*
G36*
Y45500D02*
X245400D01*
Y42400D01*
X247500D01*
Y45500D01*
D02*
G37*
G36*
X242500Y45500D02*
X240400D01*
Y42000D01*
Y38500D01*
X242500D01*
Y38500D01*
X244600D01*
Y42000D01*
Y45500D01*
X242500D01*
Y45500D01*
D02*
G37*
G36*
X261600Y39874D02*
X256669D01*
Y37207D01*
X261600D01*
Y39874D01*
D02*
G37*
G36*
X267331D02*
X262400D01*
Y37207D01*
X267331D01*
Y39874D01*
D02*
G37*
G36*
X216600Y46150D02*
X215016D01*
Y44368D01*
X216600D01*
Y46150D01*
D02*
G37*
G36*
X213984Y59150D02*
X212400D01*
Y57368D01*
X213984D01*
Y59150D01*
D02*
G37*
G36*
X174663Y63984D02*
X172882D01*
Y62400D01*
X174663D01*
Y63984D01*
D02*
G37*
G36*
X185600Y59150D02*
X184016D01*
Y57368D01*
X185600D01*
Y59150D01*
D02*
G37*
G36*
X218984Y46150D02*
X217400D01*
Y44368D01*
X218984D01*
Y46150D01*
D02*
G37*
G36*
X261600Y36407D02*
X256669D01*
Y34969D01*
X252126D01*
Y33844D01*
X248500D01*
Y35500D01*
X241500D01*
Y26500D01*
X248500D01*
Y28156D01*
X252126D01*
Y27031D01*
X256669D01*
Y25593D01*
X261600D01*
Y28260D01*
X260063D01*
Y33740D01*
X261600D01*
Y36407D01*
D02*
G37*
G36*
X201600Y19632D02*
X200016D01*
Y17850D01*
X201600D01*
Y19632D01*
D02*
G37*
G36*
X203984D02*
X202400D01*
Y17850D01*
X203984D01*
Y19632D01*
D02*
G37*
G36*
X261600Y24793D02*
X256669D01*
Y22126D01*
X261600D01*
Y24793D01*
D02*
G37*
G36*
X224600Y27632D02*
X223016D01*
Y25850D01*
X224600D01*
Y27632D01*
D02*
G37*
G36*
X267331Y36407D02*
X262400D01*
Y33740D01*
X267331D01*
Y36407D01*
D02*
G37*
G36*
X206984Y27730D02*
X205400D01*
Y25850D01*
X206984D01*
Y27730D01*
D02*
G37*
G36*
X267331Y24793D02*
X262400D01*
Y22126D01*
X267331D01*
Y24793D01*
D02*
G37*
G36*
Y28260D02*
X262400D01*
Y25593D01*
X267331D01*
Y28260D01*
D02*
G37*
G36*
X169632Y-11016D02*
X167850D01*
Y-12600D01*
X169632D01*
Y-11016D01*
D02*
G37*
G36*
Y-13400D02*
X167850D01*
Y-14984D01*
X169632D01*
Y-13400D01*
D02*
G37*
G36*
X173600Y-1425D02*
X171228D01*
Y-3600D01*
X173600D01*
Y-1425D01*
D02*
G37*
G36*
X174632Y3984D02*
X172850D01*
Y2400D01*
X174632D01*
Y3984D01*
D02*
G37*
G36*
Y1600D02*
X172850D01*
Y16D01*
X174632D01*
Y1600D01*
D02*
G37*
G36*
X201600Y-10850D02*
X200016D01*
Y-12631D01*
X201600D01*
Y-10850D01*
D02*
G37*
%LPD*%
D10*
X104000Y-67000D02*
D03*
Y-63457D02*
D03*
X116000Y-66772D02*
D03*
Y-63228D02*
D03*
D11*
X123228Y-78000D02*
D03*
X126772D02*
D03*
D12*
X104095Y-72047D02*
D03*
Y-77953D02*
D03*
X115905D02*
D03*
Y-72047D02*
D03*
D13*
X20000Y-51000D02*
D03*
D14*
X56000Y62870D02*
D03*
Y59130D02*
D03*
X225000Y-32870D02*
D03*
Y-29130D02*
D03*
X204000Y-4130D02*
D03*
Y-7870D02*
D03*
Y56870D02*
D03*
Y53130D02*
D03*
X205000Y28130D02*
D03*
Y31870D02*
D03*
D15*
X75858Y77110D02*
D03*
X64047D02*
D03*
X58142D02*
D03*
D16*
X81173Y88331D02*
D03*
Y79669D02*
D03*
X52827Y88331D02*
D03*
Y79669D02*
D03*
D17*
X71055Y57520D02*
D03*
X62000D02*
D03*
Y65000D02*
D03*
X71055D02*
D03*
D18*
X193790Y43150D02*
D03*
X191821D02*
D03*
X189853D02*
D03*
X187884D02*
D03*
X185916D02*
D03*
X183947D02*
D03*
X181979D02*
D03*
X180010D02*
D03*
Y24450D02*
D03*
X181979D02*
D03*
X183947D02*
D03*
X185916D02*
D03*
X187884D02*
D03*
X189853D02*
D03*
X191821D02*
D03*
X193790D02*
D03*
X193905Y-36701D02*
D03*
X191937D02*
D03*
X189969D02*
D03*
X188000D02*
D03*
X186031D02*
D03*
X184063D02*
D03*
X182095D02*
D03*
X180126D02*
D03*
Y-18000D02*
D03*
X182095D02*
D03*
X184063D02*
D03*
X186031D02*
D03*
X188000D02*
D03*
X189969D02*
D03*
X191937D02*
D03*
X193905D02*
D03*
D19*
X177550Y40690D02*
D03*
Y38721D02*
D03*
Y36753D02*
D03*
Y34784D02*
D03*
Y32816D02*
D03*
Y30847D02*
D03*
Y28879D02*
D03*
Y26910D02*
D03*
X196250D02*
D03*
Y28879D02*
D03*
Y30847D02*
D03*
Y32816D02*
D03*
Y34784D02*
D03*
Y36753D02*
D03*
Y38721D02*
D03*
Y40690D02*
D03*
X196366Y-20461D02*
D03*
Y-22429D02*
D03*
Y-24398D02*
D03*
Y-26366D02*
D03*
Y-28335D02*
D03*
Y-30303D02*
D03*
Y-32272D02*
D03*
Y-34240D02*
D03*
X177665D02*
D03*
Y-32272D02*
D03*
Y-30303D02*
D03*
Y-28335D02*
D03*
Y-26366D02*
D03*
Y-24398D02*
D03*
Y-22429D02*
D03*
Y-20461D02*
D03*
D20*
X186900Y33800D02*
D03*
X187016Y-27350D02*
D03*
D21*
X163150Y-80000D02*
D03*
X156850D02*
D03*
X55850Y43000D02*
D03*
X62150D02*
D03*
D22*
X39673Y33000D02*
D03*
X46327Y33000D02*
D03*
D23*
X109470Y-38271D02*
D03*
X110862Y-36879D02*
D03*
X112254Y-35487D02*
D03*
X113646Y-34095D02*
D03*
X115038Y-32703D02*
D03*
X116430Y-31311D02*
D03*
X117822Y-29919D02*
D03*
X119213Y-28527D02*
D03*
X120605Y-27135D02*
D03*
X121997Y-25743D02*
D03*
X123389Y-24351D02*
D03*
X124781Y-22959D02*
D03*
X126173Y-21567D02*
D03*
X127565Y-20175D02*
D03*
X128957Y-18783D02*
D03*
X130349Y-17391D02*
D03*
X131741Y-16000D02*
D03*
X133133Y-14608D02*
D03*
X134525Y-13216D02*
D03*
X135917Y-11824D02*
D03*
X137309Y-10432D02*
D03*
X138701Y-9040D02*
D03*
X140093Y-7648D02*
D03*
X141484Y-6256D02*
D03*
X142877Y-4864D02*
D03*
X100005Y38008D02*
D03*
X98613Y36616D02*
D03*
X97221Y35224D02*
D03*
X95829Y33832D02*
D03*
X94437Y32440D02*
D03*
X93045Y31048D02*
D03*
X91653Y29656D02*
D03*
X90261Y28264D02*
D03*
X88869Y26872D02*
D03*
X87477Y25480D02*
D03*
X86085Y24088D02*
D03*
X84693Y22696D02*
D03*
X83301Y21305D02*
D03*
X81909Y19913D02*
D03*
X80517Y18521D02*
D03*
X79125Y17129D02*
D03*
X77734Y15737D02*
D03*
X76342Y14345D02*
D03*
X74950Y12953D02*
D03*
X73558Y11561D02*
D03*
X72166Y10169D02*
D03*
X70774Y8777D02*
D03*
X69382Y7385D02*
D03*
X67990Y5993D02*
D03*
X66598Y4601D02*
D03*
D24*
X142877Y4601D02*
D03*
X141484Y5993D02*
D03*
X140093Y7385D02*
D03*
X138701Y8777D02*
D03*
X137309Y10169D02*
D03*
X135917Y11561D02*
D03*
X134525Y12953D02*
D03*
X133133Y14345D02*
D03*
X131741Y15737D02*
D03*
X130349Y17129D02*
D03*
X128957Y18521D02*
D03*
X127565Y19913D02*
D03*
X126173Y21305D02*
D03*
X124781Y22696D02*
D03*
X123389Y24088D02*
D03*
X121997Y25480D02*
D03*
X120605Y26872D02*
D03*
X119213Y28264D02*
D03*
X117822Y29656D02*
D03*
X116430Y31048D02*
D03*
X115038Y32440D02*
D03*
X113646Y33832D02*
D03*
X112254Y35224D02*
D03*
X110862Y36616D02*
D03*
X109470Y38008D02*
D03*
X66598Y-4864D02*
D03*
X67990Y-6256D02*
D03*
X69382Y-7648D02*
D03*
X70774Y-9040D02*
D03*
X72166Y-10432D02*
D03*
X73558Y-11824D02*
D03*
X74950Y-13216D02*
D03*
X76342Y-14608D02*
D03*
X77734Y-16000D02*
D03*
X79125Y-17391D02*
D03*
X80518Y-18783D02*
D03*
X81909Y-20175D02*
D03*
X83301Y-21567D02*
D03*
X84693Y-22959D02*
D03*
X86085Y-24351D02*
D03*
X87477Y-25743D02*
D03*
X88869Y-27135D02*
D03*
X90261Y-28527D02*
D03*
X91653Y-29919D02*
D03*
X93045Y-31311D02*
D03*
X94437Y-32703D02*
D03*
X95829Y-34095D02*
D03*
X97221Y-35487D02*
D03*
X98613Y-36879D02*
D03*
X100005Y-38271D02*
D03*
D25*
X38000Y43000D02*
D03*
X48000D02*
D03*
D26*
X29724Y42740D02*
D03*
X29724Y35260D02*
D03*
X20276Y35260D02*
D03*
Y39000D02*
D03*
Y42740D02*
D03*
D27*
X28150Y50000D02*
D03*
X21850D02*
D03*
X28150Y29000D02*
D03*
X21850Y29000D02*
D03*
D28*
X11000Y43150D02*
D03*
X11000Y36850D02*
D03*
D29*
X209130Y-29000D02*
D03*
X212870D02*
D03*
X209130Y-21000D02*
D03*
X212870D02*
D03*
X209130Y32000D02*
D03*
X212870D02*
D03*
X209130Y40000D02*
D03*
X212870D02*
D03*
D30*
X205000Y-32969D02*
D03*
Y-29032D02*
D03*
X202000Y-13032D02*
D03*
Y-16969D02*
D03*
X205000Y-24969D02*
D03*
Y-21032D02*
D03*
X217000Y-17031D02*
D03*
Y-20968D02*
D03*
X229000Y-32969D02*
D03*
Y-29032D02*
D03*
X202000Y-40968D02*
D03*
Y-37031D02*
D03*
X186000Y-4031D02*
D03*
Y-7969D02*
D03*
X190000Y-4031D02*
D03*
Y-7969D02*
D03*
X196000Y-4031D02*
D03*
Y-7969D02*
D03*
X200000Y-4031D02*
D03*
Y-7969D02*
D03*
X208000Y-4031D02*
D03*
Y-7969D02*
D03*
X212000Y-4000D02*
D03*
Y-7937D02*
D03*
Y56968D02*
D03*
Y53031D02*
D03*
X208000Y56968D02*
D03*
Y53031D02*
D03*
X196000Y56968D02*
D03*
Y53031D02*
D03*
X190000Y56968D02*
D03*
Y53031D02*
D03*
X186000Y56968D02*
D03*
Y53031D02*
D03*
X200000Y56968D02*
D03*
Y53031D02*
D03*
X202000Y47969D02*
D03*
Y44032D02*
D03*
X217000Y43968D02*
D03*
Y40031D02*
D03*
X229000Y28063D02*
D03*
Y32000D02*
D03*
X225000Y28032D02*
D03*
Y31969D02*
D03*
X202000Y20031D02*
D03*
Y23968D02*
D03*
X205000Y39968D02*
D03*
Y36031D02*
D03*
D31*
X209032Y-25000D02*
D03*
X212968D02*
D03*
X221031Y-21000D02*
D03*
X224969D02*
D03*
X217032Y-29000D02*
D03*
X220969D02*
D03*
X164032Y-35000D02*
D03*
X167968D02*
D03*
X170031Y-13000D02*
D03*
X173969D02*
D03*
X175031Y2000D02*
D03*
X178969D02*
D03*
X175063Y62000D02*
D03*
X179000D02*
D03*
X170031Y48000D02*
D03*
X173969D02*
D03*
X164032Y26000D02*
D03*
X167968D02*
D03*
X221031Y40000D02*
D03*
X224969D02*
D03*
X217032Y32000D02*
D03*
X220969D02*
D03*
X209032Y36000D02*
D03*
X212968D02*
D03*
X153969Y-50000D02*
D03*
X150031Y-50000D02*
D03*
X153969Y-55000D02*
D03*
X150031D02*
D03*
D32*
X179413Y-8331D02*
D03*
X174000Y-8331D02*
D03*
Y-4000D02*
D03*
X179315Y-4000D02*
D03*
Y57331D02*
D03*
X174000Y57331D02*
D03*
Y53000D02*
D03*
X179413Y53000D02*
D03*
D33*
X256095Y31000D02*
D03*
Y-31000D02*
D03*
D34*
X262000Y36807D02*
D03*
Y25193D02*
D03*
Y-25193D02*
D03*
Y-36807D02*
D03*
D35*
X65000Y-67000D02*
D03*
X65000Y-72000D02*
D03*
X70000Y-67000D02*
D03*
X70000Y-72000D02*
D03*
X75000Y-67000D02*
D03*
X75000Y-72000D02*
D03*
D36*
X245000Y42000D02*
D03*
X240000Y42000D02*
D03*
X235000Y42000D02*
D03*
X235000Y31000D02*
D03*
X245000D02*
D03*
Y-19500D02*
D03*
X240000D02*
D03*
X235000D02*
D03*
Y-30500D02*
D03*
X245000D02*
D03*
D37*
X66000Y20000D02*
D03*
X68784Y22784D02*
D03*
X63000Y23000D02*
D03*
X65784Y25784D02*
D03*
X74784Y28784D02*
D03*
X72000Y26000D02*
D03*
X71784Y31784D02*
D03*
X69000Y29000D02*
D03*
X90392Y51392D02*
D03*
X87608Y48608D02*
D03*
X93392Y48392D02*
D03*
X90608Y45608D02*
D03*
X96392Y45392D02*
D03*
X93608Y42608D02*
D03*
X153392Y-3608D02*
D03*
X150608Y-6392D02*
D03*
X156392Y-6608D02*
D03*
X153608Y-9392D02*
D03*
X143392Y-22608D02*
D03*
X140608Y-25392D02*
D03*
X156000Y-35000D02*
D03*
X153216Y-37784D02*
D03*
X153000Y-32000D02*
D03*
X150216Y-34784D02*
D03*
X149392Y-28608D02*
D03*
X146608Y-31392D02*
D03*
X57608Y4608D02*
D03*
X60392Y7392D02*
D03*
X54608Y7608D02*
D03*
X57392Y10392D02*
D03*
D38*
X86747Y34747D02*
D03*
X89253Y37253D02*
D03*
X130253Y55253D02*
D03*
X127747Y52747D02*
D03*
D39*
X113608Y50392D02*
D03*
X116392Y47608D02*
D03*
X110608Y47392D02*
D03*
X113392Y44608D02*
D03*
X151392Y42608D02*
D03*
X148608Y45392D02*
D03*
X148392Y39608D02*
D03*
X145608Y42392D02*
D03*
X148392Y33608D02*
D03*
X145608Y36392D02*
D03*
X145392Y30608D02*
D03*
X142608Y33392D02*
D03*
X93608Y-45608D02*
D03*
X96392Y-48392D02*
D03*
X90608Y-48608D02*
D03*
X93392Y-51392D02*
D03*
X81392Y-34392D02*
D03*
X78608Y-31608D02*
D03*
X78392Y-37392D02*
D03*
X75608Y-34608D02*
D03*
X68608Y-27608D02*
D03*
X71392Y-30392D02*
D03*
X71608Y-24608D02*
D03*
X74392Y-27392D02*
D03*
D40*
X142322Y27678D02*
D03*
X139678Y30322D02*
D03*
D41*
X146322Y-25678D02*
D03*
X143678Y-28322D02*
D03*
D42*
X60392Y7823D02*
X66160D01*
X57450Y-66450D02*
X65000D01*
X187884Y34784D02*
Y43150D01*
X187884Y32816D02*
X196250D01*
X187884D02*
X191821Y28879D01*
X188000Y-26366D02*
Y-18000D01*
X188000Y-28335D02*
X196366D01*
X188000D02*
X191937Y-32272D01*
X203902Y-7969D02*
X206000Y-10067D01*
X57950Y-72550D02*
X65000D01*
X131000Y-31569D02*
X150137Y-50706D01*
X146757Y-55243D02*
X150031D01*
X126772Y-78000D02*
Y-66772D01*
X118000Y-58000D02*
X126772Y-66772D01*
X118000Y-58000D02*
Y-38449D01*
X113646Y-34095D02*
X118000Y-38449D01*
X116000Y-63228D02*
Y-39233D01*
X112254Y-35487D02*
X116000Y-39233D01*
X104000Y-63457D02*
X113000Y-54457D01*
Y-39017D01*
X110862Y-36879D02*
X113000Y-39017D01*
X123181Y-77953D02*
X123228Y-78000D01*
X115905Y-77953D02*
X123181D01*
X115905Y-66866D02*
X116000Y-66772D01*
X115905Y-72047D02*
Y-66866D01*
X104000Y-67000D02*
X104095Y-67094D01*
Y-72047D02*
Y-67094D01*
X91524Y-38400D02*
X95829Y-34095D01*
X89337Y-38400D02*
X91524D01*
X82737Y-45000D02*
X89337Y-38400D01*
X60000Y-45000D02*
X82737D01*
X45000Y-30000D02*
X60000Y-45000D01*
X92708Y-40000D02*
X97221Y-35487D01*
X90000Y-40000D02*
X92708D01*
X83000Y-47000D02*
X90000Y-40000D01*
X58000Y-47000D02*
X83000D01*
X43000Y-32000D02*
X58000Y-47000D01*
X16000Y-32000D02*
X43000D01*
X8000Y-24000D02*
X16000Y-32000D01*
X16889Y-30000D02*
X45000D01*
X12800Y-25911D02*
X16889Y-30000D01*
X12800Y-25911D02*
Y-18800D01*
X8000Y-14000D02*
X12800Y-18800D01*
X81000Y29174D02*
X86085Y24088D01*
X81000Y29174D02*
Y35000D01*
X71055Y44945D02*
X81000Y35000D01*
X71055Y44945D02*
Y57520D01*
X52000Y59000D02*
X52130Y59130D01*
X56000D01*
X52000Y63000D02*
X52130Y62870D01*
X56000D01*
X67055Y61000D02*
X71055Y65000D01*
X59000Y61000D02*
X67055D01*
X57130Y62870D02*
X59000Y61000D01*
X56000Y62870D02*
X57130D01*
X57610Y57520D02*
X62000D01*
X56000Y59130D02*
X57610Y57520D01*
X96392Y-41883D02*
X100005Y-38271D01*
X96392Y-48392D02*
Y-41883D01*
X75608Y-34608D02*
X78608Y-31608D01*
X73000Y-37216D02*
X75608Y-34608D01*
X78392Y-37392D02*
X81000Y-40000D01*
X88000Y-46000D02*
X90608Y-48608D01*
X186000Y48000D02*
Y53031D01*
X185916Y47916D02*
X186000Y48000D01*
X185916Y43150D02*
Y47916D01*
X190000Y48165D02*
Y53031D01*
X189853Y48017D02*
X190000Y48165D01*
X189853Y43150D02*
Y48017D01*
X191231Y38131D02*
X191821Y38721D01*
X187884Y34784D02*
X191231Y38131D01*
X98093Y26000D02*
X100000D01*
X93045Y31048D02*
X98093Y26000D01*
X150216Y-34784D02*
X150216D01*
X153216Y-37784D01*
X153216D02*
X153216D01*
X153216Y-41784D02*
Y-37784D01*
X153216Y-38216D02*
Y-37784D01*
X193905Y-43671D02*
Y-36701D01*
X191937Y-43377D02*
Y-36701D01*
X189969Y-43082D02*
Y-36701D01*
X188000Y-42788D02*
Y-36701D01*
X180126Y-41611D02*
Y-36701D01*
X186031Y-42494D02*
Y-36701D01*
X184063Y-42200D02*
Y-36701D01*
X182095Y-41906D02*
Y-36701D01*
X126173Y-21567D02*
X129000Y-24394D01*
Y-37000D02*
Y-24394D01*
X127600Y-38400D02*
X129000Y-37000D01*
X116430Y-31311D02*
X119600Y-34481D01*
X117822Y-29919D02*
X121200Y-33297D01*
X119213Y-28527D02*
X122800Y-32114D01*
X121997Y-25743D02*
X124400Y-28146D01*
X123389Y-24351D02*
X126000Y-26962D01*
X128957Y-18783D02*
X133400Y-23226D01*
X163600Y-14074D02*
X169986Y-20461D01*
X162000Y-14737D02*
X169692Y-22429D01*
X169986Y-20461D02*
X177665D01*
X169692Y-22429D02*
X177665D01*
X169398Y-24398D02*
X177665D01*
X169103Y-26366D02*
X177665D01*
X168221Y-32272D02*
X177665D01*
X168515Y-30303D02*
X177665D01*
X168809Y-28335D02*
X177665D01*
X176535Y19535D02*
X180010Y23010D01*
X166864Y14487D02*
X168216Y13136D01*
X165680Y12887D02*
X167032Y11535D01*
X164497Y11287D02*
X165848Y9935D01*
X163313Y9687D02*
X164664Y8336D01*
X156079Y28879D02*
X177550D01*
X180010Y23010D02*
Y24450D01*
X181811Y8336D02*
X193790Y20314D01*
X164664Y8336D02*
X181811D01*
X193790Y20314D02*
Y24450D01*
X181148Y9935D02*
X191821Y20608D01*
X165848Y9935D02*
X181148D01*
X191821Y20608D02*
Y24450D01*
X180486Y11535D02*
X189853Y20903D01*
X167032Y11535D02*
X180486D01*
X189853Y20903D02*
Y24450D01*
X179823Y13136D02*
X187884Y21197D01*
X168216Y13136D02*
X179823D01*
X187884Y21197D02*
Y24450D01*
X179160Y14736D02*
X185916Y21491D01*
Y24450D01*
X178498Y16335D02*
X183947Y21785D01*
Y24450D01*
X177835Y17935D02*
X181979Y22080D01*
Y24450D01*
X130349Y17129D02*
X134108Y20887D01*
X131741Y15737D02*
X135292Y19287D01*
X133133Y14345D02*
X136476Y17687D01*
X134525Y12953D02*
X137659Y16087D01*
X126732Y27431D02*
Y29812D01*
X123389Y24088D02*
X126732Y27431D01*
X125132Y28615D02*
Y30996D01*
X121997Y25480D02*
X125132Y28615D01*
X123532Y29799D02*
Y32180D01*
X120605Y26872D02*
X123532Y29799D01*
X121932Y30983D02*
Y33364D01*
X119213Y28264D02*
X121932Y30983D01*
X120332Y32166D02*
Y34548D01*
X117822Y29656D02*
X120332Y32166D01*
X118732Y33350D02*
Y35732D01*
X116430Y31048D02*
X118732Y33350D01*
X71784Y31784D02*
X75000Y35000D01*
X74784Y28784D02*
X78000Y32000D01*
X66000D02*
X69000Y29000D01*
X72000Y26000D01*
X72000D01*
X76000Y22000D01*
Y20254D02*
Y22000D01*
Y20254D02*
X79125Y17129D01*
X65784Y25784D02*
X68784Y22784D01*
X55000Y2000D02*
X57608Y4608D01*
X57392Y10392D02*
X60392Y7392D01*
Y7392D02*
Y7392D01*
Y7823D01*
X66160D02*
X67990Y5993D01*
X55000Y12784D02*
X57392Y10392D01*
X66598Y4601D02*
X72000Y-801D01*
X15000Y-25000D02*
X60381D01*
X73558Y-11824D01*
X15000Y-20000D02*
X62598D01*
X72166Y-10432D01*
X64646Y-9600D02*
X67990Y-6256D01*
X15000Y-15000D02*
X64814D01*
X70774Y-9040D01*
X65030Y-12000D02*
X69382Y-7648D01*
X15000Y-10000D02*
X52000D01*
X54000Y-12000D01*
X65030D01*
X64462Y-7000D02*
X66598Y-4864D01*
X15000Y-5000D02*
X52000D01*
X56600Y-9600D01*
X64646D01*
X15000Y0D02*
X52000D01*
X59000Y-7000D01*
X64462D01*
X100005Y38008D02*
X104000Y34012D01*
Y32000D02*
Y34012D01*
X111000Y28403D02*
X115038Y32440D01*
X142864Y-4864D02*
X142877D01*
X138000Y0D02*
X142864Y-4864D01*
X120000Y-18178D02*
X124781Y-22959D01*
X120000Y-18178D02*
Y-18000D01*
X98613Y-36879D02*
X102000Y-33491D01*
Y-30000D01*
X107000Y-35801D02*
X109470Y-38271D01*
X107000Y-35801D02*
Y-31801D01*
X116000Y-22530D02*
X120605Y-27135D01*
X116000Y-22530D02*
Y-21000D01*
X65000Y-67000D02*
Y-66450D01*
X51000Y-60000D02*
X57450Y-66450D01*
X66000Y-63000D02*
X70000Y-67000D01*
X75000D02*
Y-66187D01*
X81187Y-60000D01*
X85000D01*
X75000Y-72813D02*
Y-72000D01*
Y-72813D02*
X81187Y-79000D01*
X85000D01*
X66000Y-76000D02*
X70000Y-72000D01*
X65000Y-72550D02*
Y-72000D01*
X51000Y-79500D02*
X57950Y-72550D01*
X83000Y-53000D02*
X85000Y-55000D01*
X83000Y-86000D02*
X85000Y-84000D01*
X81392Y-34392D02*
X84000Y-37000D01*
X91000Y-43000D02*
X93608Y-45608D01*
X93392Y-51392D02*
X93392D01*
X96392Y-48392D01*
X96000Y-54000D02*
Y-54000D01*
X93392Y-51392D02*
X96000Y-54000D01*
X66000Y-83000D02*
Y-76000D01*
Y-83000D02*
X69000Y-86000D01*
X83000D01*
X66000Y-63000D02*
Y-56000D01*
X69000Y-53000D01*
X83000D01*
X69000Y-22000D02*
X71608Y-24608D01*
X71392Y-30392D02*
X74392Y-27392D01*
X74693D02*
X81909Y-20175D01*
X74392Y-27392D02*
X74693D01*
X69000Y-32784D02*
X71392Y-30392D01*
X69000Y-35000D02*
Y-32784D01*
X73000Y-39000D02*
Y-37216D01*
X78608Y-29044D02*
X84693Y-22959D01*
X78608Y-31608D02*
Y-31608D01*
Y-29044D01*
X83301Y-21567D02*
X88000Y-16869D01*
Y-15000D01*
X118000Y17000D02*
X121869D01*
X126173Y21305D01*
X111000Y25000D02*
Y28403D01*
X127565Y19913D02*
X133274Y25622D01*
X145392Y30608D02*
X148000Y28000D01*
X148392Y33608D02*
X151000Y31000D01*
X148392Y39608D02*
X151000Y37000D01*
X151392Y42608D02*
X154000Y40000D01*
X142322Y27678D02*
X145000Y25000D01*
X141484Y5993D02*
X143579Y8087D01*
X158913D01*
X140093Y7385D02*
X142395Y9687D01*
X163313D01*
X138701Y8777D02*
X141211Y11287D01*
X164497D01*
X137309Y10169D02*
X140027Y12887D01*
X165680D01*
X135917Y11561D02*
X138843Y14487D01*
X166864D01*
X149687Y22487D02*
X156079Y28879D01*
X128957Y18521D02*
X132924Y22487D01*
X149687D01*
X142877Y4601D02*
X144763Y6487D01*
X158250D01*
X125132Y30996D02*
X141000Y46864D01*
X126732Y29812D02*
X143000Y46081D01*
X148608Y45392D02*
Y45392D01*
X145608Y42392D02*
X148608Y45392D01*
X146000Y48000D02*
X148608Y45392D01*
X141000Y46864D02*
Y50000D01*
X144000Y53000D01*
X143000Y46081D02*
Y49000D01*
X145000Y51000D01*
X140000Y61000D02*
X153000D01*
X173310Y40690D01*
X177550D01*
X141000Y59000D02*
X152000D01*
X172279Y38721D01*
X177550D01*
X142000Y57000D02*
X151000D01*
X171247Y36753D01*
X177550D01*
X143000Y55000D02*
X150000D01*
X170216Y34784D01*
X177550D01*
X144000Y53000D02*
X149000D01*
X169184Y32816D01*
X177550D01*
X145000Y51000D02*
X148000D01*
X168153Y30847D01*
X177550D01*
X133274Y25622D02*
X134977D01*
X139678Y30322D02*
X142608Y33253D01*
Y33392D01*
X145608Y36392D01*
Y36392D01*
X124781Y22696D02*
X131085Y29000D01*
X132216D01*
X145608Y42392D01*
X60000Y20000D02*
X63000Y23000D01*
Y17000D02*
X66000Y20000D01*
X68784Y22784D02*
X72563Y19005D01*
Y18124D02*
Y19005D01*
Y18124D02*
X76342Y14345D01*
X80517Y18521D02*
X80591D01*
X83301Y21305D02*
X86606Y18000D01*
X98000D01*
X100000Y20000D01*
X84470Y9000D02*
X87000D01*
X77734Y15737D02*
X84470Y9000D01*
X81909Y19913D02*
X86822Y15000D01*
X100000D01*
X80591Y18521D02*
X87111Y12000D01*
X98000D01*
X100000Y10000D01*
X82903Y5000D02*
X100000D01*
X74950Y12953D02*
X82903Y5000D01*
X85119Y0D02*
X100000D01*
X73558Y11561D02*
X85119Y0D01*
X72166Y10169D02*
X87335Y-5000D01*
X100000D01*
X70774Y8777D02*
X89551Y-10000D01*
X100000D01*
X69382Y7385D02*
X91767Y-15000D01*
X100000D01*
X67000Y-26000D02*
X68608Y-27608D01*
X65000Y-26000D02*
X67000D01*
X52000Y5000D02*
X54608Y7608D01*
X160000Y26000D02*
X164032D01*
X172910Y26910D02*
X177550D01*
X172000Y26000D02*
X172910Y26910D01*
X169400Y14736D02*
X179160D01*
X170584Y16335D02*
X178498D01*
X137659Y16087D02*
X168048D01*
X169400Y14736D01*
X136476Y17687D02*
X169232D01*
X170584Y16335D01*
X171768Y17935D02*
X177835D01*
X172431Y19535D02*
X176535D01*
X135292Y19287D02*
X170416D01*
X171768Y17935D01*
X134108Y20887D02*
X171079D01*
X172431Y19535D01*
X170968Y23000D02*
X173000D01*
X167968Y26000D02*
X170968Y23000D01*
X167968Y26000D02*
X172000D01*
X167968Y-35000D02*
X172000D01*
X172760Y-34240D02*
X177665D01*
X172000Y-35000D02*
X172760Y-34240D01*
X167968Y-35000D02*
X170968Y-38000D01*
X171000D01*
X160000Y-35000D02*
X164032D01*
X140000Y-24784D02*
X140608Y-25392D01*
X143538Y-28322D01*
X143678D01*
X146608Y-31253D01*
Y-31392D02*
Y-31253D01*
X130349Y-17391D02*
X135000Y-22042D01*
X140000Y-24784D02*
Y-21475D01*
X133133Y-14608D02*
X140000Y-21475D01*
X131741Y-16000D02*
X137000Y-21259D01*
X177400Y-46600D02*
X182095Y-41906D01*
X176737Y-45000D02*
X180126Y-41611D01*
X156000Y-35000D02*
X158608Y-32392D01*
X153000Y-32000D02*
X155608Y-29392D01*
X149392Y-28608D02*
X149392D01*
X152000Y-26000D01*
X146322Y-25678D02*
X146322D01*
X149000Y-23000D01*
X158000Y-13000D02*
X169398Y-24398D01*
X157337Y-14600D02*
X169103Y-26366D01*
X156675Y-16200D02*
X168809Y-28335D01*
X156012Y-17800D02*
X168515Y-30303D01*
X155349Y-19400D02*
X168221Y-32272D01*
X140293Y-16200D02*
X147574D01*
X149174Y-17800D01*
X156012D01*
X148237Y-14600D02*
X149837Y-16200D01*
X156675D01*
X148899Y-13000D02*
X150499Y-14600D01*
X157337D01*
X140093Y-7648D02*
X143845Y-11400D01*
X149562D01*
X151162Y-13000D01*
X158000D01*
X138701Y-9040D02*
X142661Y-13000D01*
X148899D01*
X137309Y-10432D02*
X141477Y-14600D01*
X148237D01*
X143392Y-22608D02*
X146000Y-20000D01*
X135917Y-11824D02*
X140293Y-16200D01*
X134525Y-13216D02*
X139109Y-17800D01*
X146911D01*
X148511Y-19400D01*
X155349D01*
X148000Y-9000D02*
X150608Y-6392D01*
X144229Y-9000D02*
X148000D01*
X141484Y-6256D02*
X144229Y-9000D01*
X153392Y-3608D02*
X156000Y-1000D01*
X150608Y-6392D02*
X153608Y-9392D01*
X148000Y-3784D02*
X150608Y-6392D01*
X148000Y-3784D02*
Y-2000D01*
X133400Y-31037D02*
X148963Y-46600D01*
X135000Y-30374D02*
X149626Y-45000D01*
X135000Y-30374D02*
Y-22042D01*
X149626Y-45000D02*
X176737D01*
X133400Y-31037D02*
Y-23226D01*
X148963Y-46600D02*
X177400D01*
X146608Y-36608D02*
Y-31392D01*
Y-36608D02*
X150000Y-40000D01*
X152000Y-43000D02*
X153216Y-41784D01*
X153216Y-38216D02*
X156000Y-41000D01*
X137000Y-30111D02*
Y-21259D01*
Y-30111D02*
X149889Y-43000D01*
X152000D01*
X119600Y-47914D02*
Y-34481D01*
X121200Y-47251D02*
Y-33297D01*
X122800Y-46588D02*
Y-32114D01*
X124400Y-45926D02*
Y-28146D01*
X126000Y-45263D02*
Y-26962D01*
X127600Y-44600D02*
Y-38400D01*
X121200Y-47251D02*
X138949Y-65000D01*
X170314D01*
X191937Y-43377D01*
X119600Y-47914D02*
X138286Y-66600D01*
X170976D01*
X193905Y-43671D01*
X122800Y-46588D02*
X139612Y-63400D01*
X169651D01*
X189969Y-43082D01*
X124400Y-45926D02*
X140275Y-61800D01*
X168988D01*
X188000Y-42788D01*
X126000Y-45263D02*
X140937Y-60200D01*
X168325D01*
X186031Y-42494D01*
X127600Y-44600D02*
X141600Y-58600D01*
X167663D01*
X184063Y-42200D01*
X131000Y-31569D02*
Y-23610D01*
X127565Y-20175D02*
X131000Y-23610D01*
X150031Y-50811D02*
X150137Y-50706D01*
X153969Y-50000D02*
X158000D01*
X153969Y-55000D02*
X158000D01*
X146000Y-56000D02*
X146757Y-55243D01*
X150031D02*
Y-55000D01*
Y-50811D01*
X63000Y28568D02*
X65784Y25784D01*
X63000Y28568D02*
Y29000D01*
X139622Y30266D02*
X139678Y30322D01*
X139622Y25622D02*
Y30266D01*
X139000Y25000D02*
X139622Y25622D01*
X134977D02*
X139622Y30266D01*
X173969Y-13000D02*
X174000Y-12968D01*
X178969Y-3653D02*
Y2000D01*
Y-3653D02*
X179315Y-4000D01*
X181000D01*
X182095Y-22429D02*
Y-18000D01*
X182685Y-23020D02*
X187016Y-27350D01*
X191937Y-22429D02*
X196366D01*
X187016Y-27350D02*
X188000Y-26366D01*
X191346Y-23020D01*
X191937Y-32272D02*
X196366D01*
X187016Y-27350D02*
X188000Y-28335D01*
X186000Y-7969D02*
X186031Y-8000D01*
X189969Y-8000D02*
X190000Y-7969D01*
X186031Y-18000D02*
Y-8000D01*
X181000Y-4000D02*
X183000Y-6000D01*
X190000Y-17968D02*
Y-7969D01*
X189969Y-18000D02*
X190000Y-17968D01*
X198508Y-20461D02*
X202000Y-16969D01*
X196366Y-20461D02*
X198508D01*
X200000Y-7969D02*
X203902D01*
X204000Y-7870D01*
X207902D01*
X208000Y-7969D01*
X210968D01*
X211000Y-8000D01*
X186000Y-4031D02*
Y0D01*
X190000Y-4031D02*
Y0D01*
X200000Y-4031D02*
Y0D01*
X204000Y-4130D02*
Y0D01*
X208000Y-4031D02*
Y0D01*
X212000Y-4000D02*
Y0D01*
X196000Y-4031D02*
Y0D01*
X193905Y-18000D02*
Y-14095D01*
X191937Y-18000D02*
Y-13000D01*
X193000Y-11937D01*
Y3000D01*
X195000Y5000D01*
X196000Y-12000D02*
Y-7969D01*
X193905Y-14095D02*
X196000Y-12000D01*
X206000Y-13000D02*
Y-10067D01*
X202000Y-16969D02*
X202031D01*
X206000Y-13000D01*
X193000Y67000D02*
X194000Y68000D01*
X191821Y47821D02*
X193000Y49000D01*
X191821Y43150D02*
Y47821D01*
X193000Y49000D02*
Y67000D01*
X193790Y43150D02*
Y45790D01*
X196000Y48000D01*
Y53031D01*
X186000Y56968D02*
Y61000D01*
X190000Y56968D02*
Y61000D01*
X196000Y56968D02*
Y61000D01*
X200000Y56968D02*
Y61000D01*
X204000Y56870D02*
Y61000D01*
X208000Y56968D02*
Y61000D01*
X212000Y56968D02*
Y61000D01*
X200000Y53031D02*
X203902D01*
X204000Y53130D02*
X207902D01*
X208000Y53031D01*
X212968D02*
X213000Y53000D01*
X208000Y53031D02*
X212000D01*
X212968D01*
X199031Y-13032D02*
X202000D01*
X199000Y-13000D02*
X199031Y-13032D01*
Y47969D02*
X202000D01*
X199000Y48000D02*
X199031Y47969D01*
X198658Y40690D02*
X202000Y44032D01*
X196250Y40690D02*
X198658D01*
X202000Y44032D02*
X202031D01*
X206000Y48000D01*
X204000Y53130D02*
X206000Y51130D01*
Y48000D02*
Y51130D01*
X196366Y-24398D02*
X201634D01*
X205000Y-21032D01*
X196366Y-26366D02*
X203602D01*
X205000Y-24969D01*
X209000D01*
X209032Y-25000D01*
X205000Y-21032D02*
X209098D01*
X209130Y-21000D01*
X212870D02*
X216968D01*
X217000Y-20968D01*
X212968Y-25000D02*
X217000D01*
Y-20968D02*
X221000D01*
X221031Y-21000D01*
X217000Y-17031D02*
Y-13000D01*
X196366Y-30303D02*
X200697D01*
X202000Y-29000D01*
X204969D01*
X205000Y-29032D01*
X209098D01*
X209130Y-29000D01*
X212870D02*
X217032D01*
X225000Y-37000D02*
Y-32870D01*
X229000Y-37000D02*
Y-32969D01*
X205000D02*
X205031Y-33000D01*
X208000D01*
X202000Y-45000D02*
Y-40968D01*
X199209Y-34240D02*
X202000Y-37031D01*
X196366Y-34240D02*
X199209D01*
X166000Y-13000D02*
X170031D01*
X171000Y2000D02*
X175031D01*
X196250Y36753D02*
X198753D01*
X202000Y40000D01*
X204969D01*
X205000Y39968D01*
X209098D01*
X209130Y40000D01*
X196250Y34784D02*
X200784D01*
X202031Y36031D01*
X205000D01*
X209000D01*
X209032Y36000D01*
X212968D02*
X217000D01*
Y43968D02*
Y48000D01*
X212870Y40000D02*
X216968D01*
X217000Y40031D01*
X221000D01*
X221031Y40000D01*
X212870Y32000D02*
X217032D01*
X225000Y24000D02*
Y28032D01*
X229000Y24000D02*
Y28063D01*
X205000Y28130D02*
X205130Y28000D01*
X208000D01*
X202000Y16000D02*
Y20031D01*
X196250Y26910D02*
X199058D01*
X202000Y23968D01*
X196250Y30847D02*
X199847D01*
X201000Y32000D01*
X204870D01*
X205000Y31870D01*
X209000D01*
X209130Y32000D01*
X173969Y48000D02*
Y52969D01*
X174000Y53000D01*
X179315Y57331D02*
X179985D01*
X170000Y48031D02*
X170031Y48000D01*
X170000Y48031D02*
Y52000D01*
X171000Y62000D02*
X175063D01*
X179413Y53000D02*
X181000Y51413D01*
Y49000D02*
Y51413D01*
X181979Y38721D02*
Y43150D01*
X182569Y38131D02*
X186900Y33800D01*
X191821Y38721D02*
X196250D01*
X186900Y33800D02*
X187884Y34784D01*
X191821Y28879D02*
X196250D01*
X186900Y33800D02*
X187884Y32816D01*
X183200Y48800D02*
X184000Y48000D01*
Y43203D02*
Y48000D01*
X183947Y43150D02*
X184000Y43203D01*
X183200Y48800D02*
Y54115D01*
X179000Y57646D02*
X179315Y57331D01*
X179000Y57646D02*
Y62000D01*
X179985Y57331D02*
X183200Y54115D01*
X174000Y52889D02*
Y53000D01*
Y52889D02*
X180010Y46878D01*
Y43150D02*
Y46878D01*
X183000Y-11889D02*
Y-6000D01*
Y-11889D02*
X184063Y-12952D01*
X180126Y-18000D02*
Y-15237D01*
X174000Y-9111D02*
X180126Y-15237D01*
X184063Y-18000D02*
Y-12952D01*
X179413Y-11413D02*
Y-8331D01*
Y-11413D02*
X181000Y-13000D01*
X174000Y-12968D02*
Y-9111D01*
Y-8331D01*
X90608Y45608D02*
X93608Y42608D01*
X93392Y48392D02*
X96000Y51000D01*
X96392Y45392D02*
X99000Y48000D01*
X110608Y47392D02*
X110608D01*
X108000Y50000D02*
X110608Y47392D01*
X111000Y53000D02*
X113608Y50392D01*
X113392Y44608D02*
X116392Y47608D01*
X109470Y38008D02*
X113392Y41930D01*
Y44608D01*
X116392Y47608D02*
X116608D01*
X119000Y50000D01*
X87608Y48608D02*
X90608Y45608D01*
X90392Y51392D02*
X93000Y54000D01*
X85000Y51216D02*
X87608Y48608D01*
X96000Y39229D02*
X98613Y36616D01*
X96000Y39229D02*
Y40216D01*
X93608Y42608D02*
X96000Y40216D01*
X86747Y34747D02*
Y34747D01*
X84000Y32000D02*
X86747Y34747D01*
X89624Y37253D02*
X94437Y32440D01*
X89253Y37253D02*
X89624D01*
X80000Y46505D02*
X89253Y37253D01*
X80000Y46505D02*
Y59000D01*
X86000Y65000D01*
X93000Y36661D02*
X95829Y33832D01*
X93000Y36661D02*
Y39000D01*
X82000Y50000D02*
X93000Y39000D01*
X82000Y50000D02*
Y57000D01*
X86000Y61000D01*
X120000D01*
X112254Y35224D02*
X122000Y44970D01*
Y45000D01*
X110862Y36616D02*
X121516Y47270D01*
X122000Y45000D02*
X123116Y46116D01*
X135000Y68000D02*
Y73000D01*
X137000Y75000D01*
X145000D01*
X150000Y80000D01*
X121516Y47270D02*
Y57516D01*
X123532Y32180D02*
X138800Y47448D01*
X121932Y33364D02*
X137200Y48632D01*
X120332Y34548D02*
X135600Y49816D01*
X118732Y35732D02*
X134000Y51000D01*
X138800Y50800D02*
X143000Y55000D01*
X138800Y47448D02*
Y50800D01*
X137200Y52200D02*
X142000Y57000D01*
X137200Y48632D02*
Y52200D01*
X130253Y55253D02*
X133000Y58000D01*
Y58000D01*
X123116Y46116D02*
Y56853D01*
X113646Y33832D02*
X127747Y47934D01*
Y52747D01*
X135600Y49816D02*
Y53600D01*
X141000Y59000D01*
X134000Y51000D02*
Y55000D01*
X140000Y61000D01*
X127622Y52873D02*
X127747Y52747D01*
X139000Y65000D02*
X155000D01*
X160000Y70000D01*
X127622Y52873D02*
Y58622D01*
X86000Y65000D02*
X125000D01*
X130000Y70000D01*
X121516Y57516D02*
X129000Y65000D01*
X132000D01*
X135000Y68000D01*
X123116Y56853D02*
X129263Y63000D01*
X133000D01*
X140000Y70000D01*
X127622Y58622D02*
X130000Y61000D01*
X135000D01*
X139000Y65000D01*
X158913Y8087D02*
X163600Y3400D01*
X158250Y6487D02*
X162000Y2737D01*
X163600Y-14074D02*
Y3400D01*
X162000Y-14737D02*
Y2737D01*
X156392Y-6608D02*
X159000Y-4000D01*
D43*
X97000Y-78000D02*
X97047Y-77953D01*
X104095D01*
X75858Y70142D02*
X76000Y70000D01*
X75858Y70142D02*
Y77110D01*
X64000Y70000D02*
X64047Y70047D01*
Y77110D01*
X6000Y27000D02*
X20500Y12500D01*
X6000Y27000D02*
Y40000D01*
X9150Y43150D01*
X11000D01*
X11000Y32000D02*
Y36850D01*
X17000Y29000D02*
X21850D01*
X17000Y29000D02*
X17000Y29000D01*
X20276Y39000D02*
X25000D01*
X17000Y50000D02*
X21850D01*
X28150D02*
X54000D01*
X56000Y48000D01*
Y43150D02*
Y48000D01*
X55850Y43000D02*
X56000Y43150D01*
X28150Y29000D02*
X29724Y30575D01*
Y35260D01*
X33740D01*
X36000Y33000D01*
X39673D01*
X46327Y33000D02*
X53000D01*
X55850Y35850D01*
Y43000D01*
X152000Y-80000D02*
X156850D01*
X163150D02*
X168000D01*
X39673Y33000D02*
X48000Y41327D01*
Y43000D01*
X29724Y42740D02*
X37740D01*
X38000Y43000D01*
X62150Y43000D02*
Y49850D01*
X62000Y50000D02*
X62150Y49850D01*
X11000Y43150D02*
X11409Y42740D01*
X17315Y35260D02*
X20276D01*
X15000Y37575D02*
X17315Y35260D01*
X11409Y42740D02*
X12260D01*
X15000Y40000D01*
Y37575D02*
Y40000D01*
X12260Y42740D02*
X20276D01*
X62150Y43000D02*
X67000D01*
D44*
X224969Y40000D02*
X228000D01*
X230000Y42000D01*
X235000D01*
X235000Y42000D01*
X229000Y32000D02*
X231000D01*
X232000Y31000D01*
X235000D01*
X224969Y-21000D02*
X228000D01*
X229500Y-19500D02*
X235000D01*
X228000Y-21000D02*
X229500Y-19500D01*
X229000Y-29032D02*
X231031D01*
X232500Y-30500D01*
X235000D01*
X245000D02*
X245500Y-31000D01*
X245000Y31000D02*
X256095D01*
X245500Y-31000D02*
X256095D01*
X220969Y32000D02*
X224969D01*
X225000Y31969D01*
X225031Y32000D01*
X229000D01*
X220969Y-29000D02*
X224870D01*
X225000Y-29130D02*
X225098Y-29032D01*
X229000D01*
D45*
X8000Y-4000D02*
D03*
Y-14000D02*
D03*
Y-24000D02*
D03*
X110000Y70000D02*
D03*
X110000Y80000D02*
D03*
X120000Y70000D02*
D03*
X120000Y80000D02*
D03*
X130000Y70000D02*
D03*
Y80000D02*
D03*
X140000Y70000D02*
D03*
Y80000D02*
D03*
X150000Y70000D02*
D03*
X150000Y80000D02*
D03*
X160000Y70000D02*
D03*
D46*
X8000Y-34000D02*
D03*
D47*
X72905Y84000D02*
D03*
X61094D02*
D03*
D48*
X62000Y50000D02*
D03*
X20000Y-51000D02*
D03*
D49*
X160000Y80000D02*
D03*
D50*
X60000Y-69500D02*
D03*
X80000Y-65500D02*
D03*
X80000Y-73500D02*
D03*
D51*
X60000Y-59500D02*
D03*
X60000Y-79500D02*
D03*
X72500Y-59500D02*
D03*
X72500Y-79500D02*
D03*
D52*
X97000Y-78000D02*
D03*
X52000Y59000D02*
D03*
Y63000D02*
D03*
X76000Y70000D02*
D03*
X64000D02*
D03*
X88000Y-46000D02*
D03*
X191231Y38131D02*
D03*
Y33800D02*
D03*
Y29469D02*
D03*
X186900Y38131D02*
D03*
Y33800D02*
D03*
Y29469D02*
D03*
X182569Y38131D02*
D03*
Y33800D02*
D03*
Y29469D02*
D03*
X182685Y-31681D02*
D03*
Y-27350D02*
D03*
Y-23020D02*
D03*
X187016Y-31681D02*
D03*
Y-27350D02*
D03*
Y-23020D02*
D03*
X191347Y-31681D02*
D03*
Y-27350D02*
D03*
Y-23020D02*
D03*
X100000Y26000D02*
D03*
X75000Y35000D02*
D03*
X78000Y32000D02*
D03*
X66000D02*
D03*
X55000Y2000D02*
D03*
Y12784D02*
D03*
X72000Y-801D02*
D03*
X50500Y22500D02*
D03*
Y17500D02*
D03*
X11000Y32000D02*
D03*
X17000Y29000D02*
D03*
X25000Y39000D02*
D03*
X17000Y50000D02*
D03*
X152000Y-80000D02*
D03*
X168000D02*
D03*
X20500Y12500D02*
D03*
X15000Y0D02*
D03*
Y-5000D02*
D03*
Y-10000D02*
D03*
Y-15000D02*
D03*
Y-20000D02*
D03*
Y-25000D02*
D03*
X104000Y32000D02*
D03*
X138000Y0D02*
D03*
X120000Y-18000D02*
D03*
X102000Y-30000D02*
D03*
X107000Y-31801D02*
D03*
X116000Y-21000D02*
D03*
X51000Y-60000D02*
D03*
Y-79500D02*
D03*
X85000Y-60000D02*
D03*
Y-79000D02*
D03*
Y-55000D02*
D03*
Y-84000D02*
D03*
X81000Y-40000D02*
D03*
X84000Y-37000D02*
D03*
X91000Y-43000D02*
D03*
X96000Y-54000D02*
D03*
X69000Y-22000D02*
D03*
Y-35000D02*
D03*
X73000Y-39000D02*
D03*
X88000Y-15000D02*
D03*
X118000Y17000D02*
D03*
X111000Y25000D02*
D03*
X148000Y28000D02*
D03*
X151000Y37000D02*
D03*
X154000Y40000D02*
D03*
X145000Y25000D02*
D03*
X151000Y31000D02*
D03*
X146000Y48000D02*
D03*
X60000Y20000D02*
D03*
X63000Y17000D02*
D03*
X67000Y43000D02*
D03*
X100000Y20000D02*
D03*
Y15000D02*
D03*
Y10000D02*
D03*
X87000Y9000D02*
D03*
X100000Y5000D02*
D03*
Y0D02*
D03*
Y-5000D02*
D03*
Y-10000D02*
D03*
Y-15000D02*
D03*
X65000Y-26000D02*
D03*
X52000Y5000D02*
D03*
X160000Y26000D02*
D03*
X173000Y23000D02*
D03*
X171000Y-38000D02*
D03*
X160000Y-35000D02*
D03*
X158608Y-32392D02*
D03*
X155608Y-29392D02*
D03*
X152000Y-26000D02*
D03*
X149000Y-23000D02*
D03*
X146000Y-20000D02*
D03*
X156000Y-1000D02*
D03*
X148000Y-2000D02*
D03*
X150000Y-40000D02*
D03*
X156000Y-41000D02*
D03*
X146000Y-56000D02*
D03*
X158000Y-50000D02*
D03*
Y-55000D02*
D03*
X63000Y29000D02*
D03*
X139000Y25000D02*
D03*
X206000Y-13000D02*
D03*
X186000Y0D02*
D03*
X190000D02*
D03*
X200000D02*
D03*
X204000D02*
D03*
X208000D02*
D03*
X212000D02*
D03*
X195000Y5000D02*
D03*
X196000Y0D02*
D03*
X194000Y68000D02*
D03*
X186000Y61000D02*
D03*
X190000D02*
D03*
X196000D02*
D03*
X200000D02*
D03*
X204000D02*
D03*
X208000D02*
D03*
X212000D02*
D03*
X199000Y-13000D02*
D03*
Y48000D02*
D03*
X206000D02*
D03*
X217000Y-25000D02*
D03*
Y-13000D02*
D03*
X225000Y-37000D02*
D03*
X229000D02*
D03*
X208000Y-33000D02*
D03*
X202000Y-45000D02*
D03*
X166000Y-13000D02*
D03*
X171000Y2000D02*
D03*
X217000Y36000D02*
D03*
Y48000D02*
D03*
X225000Y24000D02*
D03*
X229000D02*
D03*
X208000Y28000D02*
D03*
X202000Y16000D02*
D03*
X170000Y52000D02*
D03*
X171000Y62000D02*
D03*
X181000Y49000D02*
D03*
Y-13000D02*
D03*
X96000Y51000D02*
D03*
X99000Y48000D02*
D03*
X108000Y50000D02*
D03*
X111000Y53000D02*
D03*
X119000Y50000D02*
D03*
X93000Y54000D02*
D03*
X85000Y51216D02*
D03*
X84000Y32000D02*
D03*
X120000Y61000D02*
D03*
X133000Y58000D02*
D03*
X159000Y-4000D02*
D03*
X128000Y-61000D02*
D03*
X247570Y37495D02*
D03*
X251554Y36162D02*
D03*
X255647Y37104D02*
D03*
X262193Y28992D02*
D03*
X255844Y24896D02*
D03*
X251723Y25708D02*
D03*
X247685Y24553D02*
D03*
X243489Y24366D02*
D03*
X239883Y26519D02*
D03*
X239365Y30687D02*
D03*
X239633Y34878D02*
D03*
X242872Y37553D02*
D03*
X237570Y48494D02*
D03*
X231893Y35728D02*
D03*
X220075Y37265D02*
D03*
X222260Y44789D02*
D03*
X226409Y45440D02*
D03*
X230288Y47049D02*
D03*
X236077Y24365D02*
D03*
X231893Y24728D02*
D03*
X219782Y26881D02*
D03*
X216173Y29028D02*
D03*
X247570Y-24005D02*
D03*
X251251Y-26029D02*
D03*
X255295Y-24896D02*
D03*
X262198Y-32652D02*
D03*
X252016Y-36518D02*
D03*
X247833Y-36886D02*
D03*
X243640Y-37135D02*
D03*
X239957Y-35117D02*
D03*
X239365Y-30959D02*
D03*
X239574Y-26764D02*
D03*
X242708Y-23969D02*
D03*
X237570Y-13005D02*
D03*
X231893Y-25772D02*
D03*
X222312Y-16189D02*
D03*
X226469Y-15595D02*
D03*
X230446Y-14245D02*
D03*
X234010Y-37135D02*
D03*
X221894Y-34120D02*
D03*
X217730Y-33570D02*
D03*
X220086Y-23880D02*
D03*
X167500Y-7500D02*
D03*
X170000Y-52500D02*
D03*
Y-42500D02*
D03*
Y67500D02*
D03*
X175000Y-42500D02*
D03*
X177500Y-37500D02*
D03*
X175000Y67500D02*
D03*
X180000D02*
D03*
X185000D02*
D03*
X190000Y-52500D02*
D03*
X195000D02*
D03*
X197500Y-47500D02*
D03*
Y22500D02*
D03*
X200000Y-52500D02*
D03*
Y67500D02*
D03*
X205000Y-52500D02*
D03*
X207500Y-47500D02*
D03*
Y-37500D02*
D03*
Y22500D02*
D03*
X205000Y67500D02*
D03*
X210000Y-52500D02*
D03*
X212500Y-47500D02*
D03*
X210000Y-42500D02*
D03*
X212500Y-37500D02*
D03*
X210000Y-12500D02*
D03*
Y17500D02*
D03*
X212500Y22500D02*
D03*
X210000Y47500D02*
D03*
Y67500D02*
D03*
X215000Y-52500D02*
D03*
X217500Y-47500D02*
D03*
X215000Y-42500D02*
D03*
X217500Y-7500D02*
D03*
Y2500D02*
D03*
X215000Y17500D02*
D03*
X217500Y22500D02*
D03*
Y52500D02*
D03*
Y62500D02*
D03*
X215000Y67500D02*
D03*
X220000Y-52500D02*
D03*
X222500Y-47500D02*
D03*
X220000Y-42500D02*
D03*
X222500Y-7500D02*
D03*
X220000Y-2500D02*
D03*
X222500Y2500D02*
D03*
X220000Y17500D02*
D03*
X222500Y52500D02*
D03*
X220000Y57500D02*
D03*
X222500Y62500D02*
D03*
X220000Y67500D02*
D03*
X225000Y-52500D02*
D03*
X227500Y-47500D02*
D03*
X225000Y-42500D02*
D03*
X227500Y-7500D02*
D03*
X225000Y-2500D02*
D03*
X227500Y2500D02*
D03*
X225000Y17500D02*
D03*
X227500Y52500D02*
D03*
X225000Y57500D02*
D03*
X227500Y62500D02*
D03*
X225000Y67500D02*
D03*
X230000Y-52500D02*
D03*
X232500Y-47500D02*
D03*
X230000Y-42500D02*
D03*
X232500Y-7500D02*
D03*
X230000Y-2500D02*
D03*
X232500Y2500D02*
D03*
X230000Y17500D02*
D03*
X232500Y52500D02*
D03*
X230000Y57500D02*
D03*
X235000Y-52500D02*
D03*
X237500Y-47500D02*
D03*
X235000Y-42500D02*
D03*
X237500Y-7500D02*
D03*
X235000Y-2500D02*
D03*
X237500Y2500D02*
D03*
X235000Y17500D02*
D03*
Y57500D02*
D03*
X240000Y-52500D02*
D03*
X242500Y-47500D02*
D03*
X240000Y-42500D02*
D03*
X242500Y-7500D02*
D03*
X240000Y-2500D02*
D03*
X242500Y2500D02*
D03*
X240000Y17500D02*
D03*
X242500Y52500D02*
D03*
X245000Y-52500D02*
D03*
X247500Y-47500D02*
D03*
X245000Y-42500D02*
D03*
Y-12500D02*
D03*
X247500Y-7500D02*
D03*
X245000Y-2500D02*
D03*
X247500Y2500D02*
D03*
X245000Y17500D02*
D03*
X247500Y52500D02*
D03*
X250000Y-52500D02*
D03*
X252500Y-47500D02*
D03*
X250000Y-42500D02*
D03*
X252500Y-17500D02*
D03*
X250000Y-12500D02*
D03*
X252500Y-7500D02*
D03*
X250000Y-2500D02*
D03*
X252500Y2500D02*
D03*
X250000Y17500D02*
D03*
X252500Y42500D02*
D03*
X250000Y47500D02*
D03*
X252500Y52500D02*
D03*
X255000Y-52500D02*
D03*
X257500Y-47500D02*
D03*
X255000Y-42500D02*
D03*
X257500Y-17500D02*
D03*
X255000Y-12500D02*
D03*
X257500Y-7500D02*
D03*
X255000Y-2500D02*
D03*
X257500Y2500D02*
D03*
X255000Y17500D02*
D03*
X257500Y42500D02*
D03*
X255000Y47500D02*
D03*
X257500Y52500D02*
D03*
X260000Y-52500D02*
D03*
X262500Y-47500D02*
D03*
X260000Y-42500D02*
D03*
X262500Y-17500D02*
D03*
X260000Y-12500D02*
D03*
X262500Y-7500D02*
D03*
X260000Y-2500D02*
D03*
X262500Y2500D02*
D03*
X260000Y17500D02*
D03*
X262500Y42500D02*
D03*
X260000Y47500D02*
D03*
X262500Y52500D02*
D03*
X265000Y-52500D02*
D03*
Y-42500D02*
D03*
Y-12500D02*
D03*
Y-2500D02*
D03*
Y17500D02*
D03*
X267500Y42500D02*
D03*
X265000Y47500D02*
D03*
X267500Y52500D02*
D03*
M02*
