M48
;Layer_Color=9474304
;FILE_FORMAT=2:5
INCH,LZ
;TYPE=PLATED
T1F00S00C0.00800
T2F00S00C0.03543
T3F00S00C0.04016
;TYPE=NON_PLATED
T4F00S00C0.03543
T5F00S00C0.03900
T6F00S00C0.09350
%
T01
X0051Y-00795
Y-006
X0085
Y-0055
X0088Y-0046
X0091Y-0043
X0081Y-004
X0084Y-0037
X0073Y-0039
X0069Y-0035
X0102Y-003
X0107Y-0031801
X0096Y-0054
X0097Y-0078
X0085Y-0079
Y-0084
X0128Y-0061
X0146Y-0056
X0158Y-0055
Y-005
X0156Y-0041
X015Y-004
X016Y-0035
X0158608Y-0032392
X0155608Y-0029392
X0171Y-0038
X017Y-00425
X0175
X01775Y-00375
X0182685Y-0031681
X0187016
X0191347
X01975Y-00475
X0195Y-00525
X019
X017
X0168Y-008
X0152
X02Y-00525
X0205
X021
X0215
X022
X0225
X023
X0235
X024
X0245
X025
X0255
X026
X0265
X02625Y-00475
X02575
X02525
X02475
X02425
X02375
X02325
X02275
X02225
X02175
X02125
X02075
X021Y-00425
X0215
X022
X0225
X023
X0235
X024
X0245
X025
X0255
X026
X0265
X0262198Y-0032652
X0252016Y-0036518
X0247833Y-0036886
X024364Y-0037135
X0239957Y-0035117
X0239365Y-0030959
X023401Y-0037135
X0229Y-0037
X0225
X0221894Y-003412
X021773Y-003357
X02125Y-00375
X02075
X0208Y-0033
X0202Y-0045
X0199Y-0013
X0206
X021Y-00125
X0217Y-0013
X02175Y-00075
X02225
X02275
X02325
X02375
X02425
X02475
X02525
X02575
X02625
X026Y-00125
X0255
X025
X0245
X023757Y-0013005
X0230446Y-0014245
X0226469Y-0015595
X0222312Y-0016189
X0220086Y-002388
X0217Y-0025
X0231893Y-0025772
X0239574Y-0026764
X0242708Y-0023969
X024757Y-0024005
X0251251Y-0026029
X0255295Y-0024896
X02575Y-00175
X02525
X02625
X0265Y-00125
Y-00025
X026
X0255
X025
X0245
X024
X0235
X023
X0225
X022
X02175Y00025
X02225
X02275
X02325
X02375
X02425
X02475
X02525
X02575
X02625
X026Y00175
X0255
X025
X0245
X024
X0235
X023
X0225
X022
X0215
X021
X02075Y00225
X02125
X02175
X0219782Y0026881
X0216173Y0029028
X0217Y0036
X0220075Y0037265
X022226Y0044789
X0226409Y004544
X0230288Y0047049
X02325Y00525
X02275
X02225
X02175
X0217Y0048
X021Y00475
X0206Y0048
X0199
X02Y0061
X0204
X0208
X0212
X02175Y00625
X02225
X02275
X0225Y00575
X022
Y00675
X0215
X021
X0205
X02
X0225
X023Y00575
X0235
X023757Y0048494
X02425Y00525
X02475
X02525
X02575
X02625
X02675
X0265Y00475
X026
X0255
X025
X02525Y00425
X02575
X02625
X02675
X0255647Y0037104
X0251554Y0036162
X024757Y0037495
X0242872Y0037553
X0239633Y0034878
X0239365Y0030687
X0239883Y0026519
X0243489Y0024366
X0247685Y0024553
X0251723Y0025708
X0255844Y0024896
X0262193Y0028992
X0265Y00175
X0236077Y0024365
X0231893Y0024728
X0229Y0024
X0225
X0231893Y0035728
X0208Y0028
X0202Y0016
X02Y0
X0204
X0208
X0212
X0196
X019
X0186
X0195Y0005
X01975Y00225
X0191231Y0029469
X01869
Y00338
X0191231
Y0038131
X01869
X0182569
Y00338
Y0029469
X0173Y0023
X016Y0026
X0148Y0028
X0145Y0025
X0139
X0151Y0031
Y0037
X0154Y004
X0146Y0048
X0133Y0058
X012Y0061
X0119Y005
X0108
X0111Y0053
X0096Y0051
X0099Y0048
X0093Y0054
X0085Y0051216
X0084Y0032
X0078Y0032
X0075Y0035
X0066Y0032
X0063Y0029
X006Y002
X0063Y0017
X0055Y0012784
X00505Y00175
Y00225
X0052Y0005
X0055Y0002
X0072Y-0000801
X0069Y-0022
X0065Y-0026
X0088Y-0015
X01
Y-001
Y-0005
Y0
Y0005
Y001
Y0015
Y002
Y0026
X0104Y0032
X0111Y0025
X0118Y0017
X0138Y0
X0148Y-0002
X0156Y-0001
X0159Y-0004
X01675Y-00075
X0166Y-0013
X0181
X0182685Y-002302
Y-002735
X0187016
Y-002302
X0191347
Y-002735
X0152Y-0026
X0149Y-0023
X0146Y-002
X012Y-0018
X0116Y-0021
X0087Y0009
X0067Y0043
X0064Y007
X0076
X0052Y0063
Y0059
X0171Y0062
X017Y00675
X0175
X018
X0185
X0186Y0061
X019
X0196
X0194Y0068
X0181Y0049
X017Y0052
X0171Y0002
X0015Y0
Y-0005
Y-001
Y-0015
Y-002
Y-0025
X00205Y00125
X0017Y0029
X0011Y0032
X0025Y0039
X0017Y005
T02
X0008Y-0034
X011Y007
X012
X012Y008
X013
Y007
X014
Y008
X015
X016
X016Y007
X015
X011Y008
X0008Y-0004
Y-0014
Y-0024
T03
X002Y-0051
X0062Y005
T04
X0061094Y0084
X0072905
T05
X006Y-00695
X008Y-00655
X008Y-00735
T06
X006Y-00795
X00725Y-00795
X00725Y-00595
X006Y-00595
M30
